<?xml version="1.0" encoding="UTF-8"?>
<svg id="Layer_2" xmlns="http://www.w3.org/2000/svg" version="1.1" viewBox="0 0 355.2 212.5">
  <!-- Generator: Adobe Illustrator 29.6.1, SVG Export Plug-In . SVG Version: 2.1.1 Build 9)  -->
  <defs>
    <style>
      .st0 {
        fill: #fff;
      }

      .st1 {
        fill: #00d1b2;
      }
    </style>
  </defs>
  <g id="Layer_1-2">
    <g>
      <path class="st1" d="M23.2,30.2c1.7-12.1,12.2-21.2,24.4-21.2h260.1c12.2,0,22.7,9.1,24.4,21.2,1.6,11.4,3.5,24.5,5.5,37.8,3-.1,6-.2,9-.3-2-13.7-4-27.1-5.6-38.8C338.8,12.4,324.4,0,307.8,0H47.7c-16.7,0-31,12.4-33.3,28.9-1.7,11.7-3.6,24.8-5.7,38.7,3,.1,6,.2,9,.3,2-13.6,3.9-26.4,5.6-37.8Z"/>
      <path class="st1" d="M348.1,77c-3,.1-6,.2-9,.3,2.5,16.9,4.9,33.9,6.9,47.6,1.5,10.7-4,21-13.8,25.7-49.3,23.6-84.3,36.3-115.6,41.8-.9,3.4-2.2,6.7-4,9.8h0c33.6-5.1,70.6-18.1,123.4-43.4,13.3-6.4,20.9-20.5,18.8-35.1-1.9-13.5-4.3-30.1-6.7-46.7h0Z"/>
      <path class="st1" d="M24,152.5c-10.2-4.4-16.2-15-14.8-26,1.9-14.2,4.5-31.7,7.1-49.2-3-.1-6-.2-9.1-.3-2.6,17.2-5.1,34.3-6.9,48.3-2,14.9,6.3,29.5,20.1,35.4,55,23.5,90.2,35.3,121.7,40.6-1.7-3.1-2.9-6.4-3.7-9.8-29.5-5.6-63.2-17.2-114.4-39.1h0Z"/>
      <path class="st1" d="M64.8,41.8c1.3-2,2-4.3,2-6.9,0-4.8-1.3-8.4-3.8-10.9-2.5-2.5-6.3-3.7-11.1-3.7h-15.5v48.3c8.6.3,17.2.5,25.8.7.5-.4,1-.8,1.5-1.3,2.7-2.8,4-6.6,4-11.4s-.7-6-2.2-8.3c-.9-1.5-2.1-2.7-3.5-3.5,1.1-.9,2-1.9,2.8-3h0ZM45.5,28.6h6.3c2,0,3.5.5,4.4,1.4.9.9,1.4,2.6,1.4,4.8s-.5,3.6-1.6,4.7c-1,1.1-2.3,1.7-4.1,1.7h-6.4s0-12.6,0-12.6ZM56.9,62.2c-1.1,1.2-2.5,1.8-4.4,1.8h-6.9v-14.6h7c2.8,0,6,.8,6,7.3s-.6,4.2-1.7,5.5h0Z"/>
      <path class="st1" d="M97.2,59.5l3.2,10.7c3.2,0,6.3,0,9.5.1l-16.2-50h-7.5l-15.9,49.3c3.1,0,6.2.1,9.4.2l3.1-10.3h14.3ZM90,35.7l4.7,15.5h-9.3l4.7-15.5Z"/>
      <path class="st1" d="M119,70.5c6.2,0,12.4.1,18.6.2.8-.5,1.6-1.1,2.2-1.7,2.9-2.7,4.4-6.2,4.4-10.6s-1.2-7.5-3.5-10.2c-2.3-2.6-5.9-4.6-11-6.3-2.9-1-5-2.2-6.3-3.4-1.2-1.1-1.8-2.5-1.8-4.1s.5-3.7,1.6-4.8c1.1-1.1,2.6-1.6,4.7-1.6s4,.6,5.2,2c1.2,1.4,1.8,3.4,1.8,6v1.5h9.2v-1.5c0-3-.7-5.7-2-8.2-1.3-2.5-3.3-4.5-5.8-5.9-2.5-1.4-5.3-2.1-8.4-2.1-4.6,0-8.3,1.4-11.2,4.2-2.9,2.8-4.3,6.4-4.3,10.7s.5,4.7,1.5,6.7c1,1.9,2.5,3.7,4.5,5.2,2,1.5,4.7,2.8,8.3,4.1,3.2,1.2,5.5,2.3,6.6,3.5,1,1,1.5,2.5,1.5,4.5s-.5,3.5-1.6,4.6c-1.1,1.1-2.8,1.6-5.1,1.6s-4.4-.7-5.9-2.1c-1.4-1.4-2.1-3.4-2.1-6v-1.5h-9.2v1.5c0,3.2.8,6.1,2.3,8.5,1.4,2.2,3.2,4,5.5,5.3h0Z"/>
      <path class="st1" d="M178.7,64.1h-20.2v-14.4h17.3v-8.3h-17.3v-12.8h19.9v-8.3h-29v50.5c9.8,0,19.6,0,29.4,0v-6.8h0Z"/>
      <path class="st1" d="M210.9,68.1c2.7-2.8,4-6.6,4-11.4s-.7-6-2.2-8.3c-.9-1.5-2.1-2.7-3.5-3.5,1.1-.9,2-1.9,2.8-3,1.3-2,2-4.3,2-6.9,0-4.8-1.3-8.4-3.8-10.9-2.5-2.5-6.3-3.7-11.1-3.7h-15.5v50.6c7.9,0,15.7,0,23.5,0,1.4-.7,2.7-1.6,3.8-2.7h0ZM192.7,28.6h6.3c2,0,3.5.5,4.4,1.4.9.9,1.4,2.6,1.4,4.8s-.5,3.6-1.6,4.7c-1,1.1-2.4,1.7-4.1,1.7h-6.4s0-12.6,0-12.6ZM204.1,62.2c-1.1,1.2-2.5,1.8-4.4,1.8h-6.9v-14.6h7.1c2.8,0,6,.8,6,7.3s-.6,4.2-1.7,5.5h0Z"/>
      <path class="st1" d="M244.4,59.5l3.3,10.8c3.1,0,6.3,0,9.4-.1l-16.1-49.9h-7.5l-16.2,50.4c3.2,0,6.3,0,9.5,0l3.3-11.1h14.3ZM237.2,35.7l4.7,15.5h-9.3l4.6-15.5h0Z"/>
      <path class="st1" d="M289.3,64.1h-19.2V20.3h-9.2v49.8c9.5-.2,18.9-.4,28.4-.6v-5.4h0Z"/>
      <path class="st1" d="M322,64.1h-19.2V20.3h-9.2v49c9.5-.2,18.9-.5,28.4-.8v-4.5h0Z"/>
      <polygon class="st1" points="80 126 60.8 126 60.8 82.3 51.6 82.3 51.6 134.3 80 134.3 80 126"/>
      <polygon class="st1" points="113.6 126 93.5 126 93.5 111.7 110.8 111.7 110.8 103.4 93.5 103.4 93.5 90.6 113.3 90.6 113.3 82.3 84.3 82.3 84.3 134.3 113.6 134.3 113.6 126"/>
      <path class="st1" d="M128.9,92.8c1.4-1.9,3.5-2.8,6.5-2.8s4.3.7,5.4,2c1.2,1.5,2,3.6,2.2,6.3v1.4h9.2v-1.6c-.4-5.2-2-9.3-4.9-12.1-2.9-2.9-6.9-4.3-12-4.3s-10.5,1.9-13.5,5.7c-2.9,3.7-4.4,9.2-4.4,16.4v9.6c0,6.8,1.8,12.1,5,15.9,3.3,3.8,7.9,5.8,13.6,5.8s11.4-2,14.8-6l1.4-1.8v-20.3h-18.1v8.3h8.9v9.1l-.4.4c-1.4,1.3-3.6,2-6.6,2s-5.3-1.1-6.9-3.3c-1.7-2.4-2.6-5.9-2.6-10.5v-10c0-4.7.8-8.1,2.3-10.2h0Z"/>
      <polygon class="st1" points="188.6 126 168.4 126 168.4 111.7 185.7 111.7 185.7 103.4 168.4 103.4 168.4 90.6 188.2 90.6 188.2 82.3 159.2 82.3 159.2 134.3 188.6 134.3 188.6 126"/>
      <polygon class="st1" points="202.6 101.2 219.9 134.3 228.4 134.3 228.4 82.3 219.3 82.3 219.3 115.6 202.1 82.3 193.4 82.3 193.4 134.3 202.6 134.3 202.6 101.2"/>
      <path class="st1" d="M263.7,128.5c3.5-3.8,5.2-9.2,5.2-16v-8.2c0-6.8-1.7-12.2-5.1-16.1-3.5-3.9-8.3-5.9-14.4-5.9h-13.2v52h12.5c6.5,0,11.6-1.9,15.1-5.8h0ZM245.3,90.6h4c3.6,0,6.1,1,7.8,3.1,1.8,2.1,2.6,5.6,2.6,10.4v8.7c0,4.5-1,7.9-2.7,10.1-1.7,2.1-4.4,3.2-8.3,3.2h-3.4v-35.4h0Z"/>
      <path class="st1" d="M281.6,133c2.6,1.4,5.5,2,8.6,2,4.8,0,8.7-1.3,11.5-4,2.9-2.7,4.4-6.2,4.4-10.6s-1.2-7.5-3.5-10.2c-2.3-2.6-5.9-4.6-11-6.3-2.9-1-5-2.2-6.3-3.4-1.2-1.1-1.8-2.4-1.8-4.1s.5-3.7,1.6-4.8c1.1-1.1,2.6-1.6,4.7-1.6s4,.7,5.2,2c1.2,1.4,1.8,3.4,1.8,6v1.5h9.2v-1.5c0-3-.7-5.7-2-8.2-1.3-2.5-3.3-4.5-5.8-5.9-2.5-1.4-5.3-2.1-8.4-2.1-4.6,0-8.4,1.4-11.2,4.2-2.9,2.8-4.3,6.4-4.3,10.7s.5,4.7,1.5,6.7c1,1.9,2.5,3.7,4.5,5.2,1.9,1.4,4.7,2.8,8.3,4.1,3.2,1.2,5.5,2.3,6.6,3.5,1,1,1.5,2.5,1.5,4.6s-.5,3.5-1.6,4.6c-1.1,1.1-2.8,1.6-5.1,1.6s-4.4-.7-5.9-2.1c-1.4-1.4-2.1-3.4-2.1-6v-1.5h-9.2v1.5c0,3.2.8,6.1,2.3,8.5,1.5,2.5,3.6,4.4,6.3,5.8h0Z"/>
      <path class="st0" d="M150.4,152.6h0l2.1-2c-38.2-.6-76.4-2.7-114.5-6.3-1.9-.2-2.6,2.5-.8,3.2,32.7,13.2,66.1,25.3,100.2,36.3,0-.5,0-1.1,0-1.6,0-9.4,3.4-18.5,9.3-25.7l-.3-.3,4-3.7h0Z"/>
      <path class="st0" d="M217.8,182.3c0,.5,0,.9,0,1.4,34.1-10.9,67.5-23,100.2-36.1,1.8-.7,1.1-3.4-.8-3.2-38.1,3.6-76.3,5.6-114.5,6.3l2.1,2h0l4,3.7-.3.3c6,7.2,9.3,16.3,9.3,25.7h0Z"/>
      <path class="st1" d="M185.1,179.7c0-.4,0-.9.1-1.3,0-.2,0-.5,0-.7,0-.4.1-.8.2-1.3,0-.2,0-.4.1-.7,0-.5.2-.9.2-1.4,0-.2,0-.4.1-.5.1-.6.3-1.2.4-1.9,0-.1,0-.2,0-.3.1-.5.3-1,.4-1.5,0-.2.1-.4.2-.6.1-.4.3-.8.4-1.2,0-.2.2-.4.2-.6.2-.4.3-.8.5-1.2,0-.2.2-.4.3-.6.2-.5.4-.9.6-1.4,0-.1.1-.2.2-.4.3-.6.6-1.1.9-1.7,0-.1.1-.3.2-.4.2-.4.5-.8.8-1.3.1-.2.2-.4.4-.6.2-.4.5-.7.7-1.1.1-.2.3-.4.4-.6.3-.4.5-.7.8-1.1.1-.2.2-.3.4-.5,0,0,.1-.1.1-.2-4.9-3.1-10.5-4.8-16.4-4.8s-11.6,1.7-16.4,4.8c0,0,.1.1.1.2.1.2.2.3.4.5.3.4.5.7.8,1.1.1.2.3.4.4.6.2.4.5.7.7,1.1.1.2.2.4.4.6.3.4.5.8.8,1.3,0,.1.2.3.2.4.3.6.6,1.1.9,1.7,0,.1.1.2.2.4.2.4.4.9.6,1.4,0,.2.2.4.3.6.2.4.3.8.5,1.2,0,.2.2.4.2.6.1.4.3.8.4,1.2,0,.2.1.4.2.6.2.5.3,1,.4,1.5,0,.1,0,.2,0,.3.2.6.3,1.2.4,1.9,0,.2,0,.4.1.5,0,.4.2.9.2,1.4,0,.2,0,.4.1.7,0,.4.1.8.2,1.3,0,.2,0,.5,0,.7,0,.4,0,.9.1,1.3,0,.2,0,.4,0,.6,0,.6,0,1.3,0,1.9s0,1.3,0,1.9c0,.2,0,.4,0,.6,0,.4,0,.9-.1,1.3,0,.2,0,.5,0,.7,0,.4-.1.8-.2,1.3,0,.2,0,.5-.1.7,0,.4-.2.9-.2,1.4,0,.2,0,.4-.1.5-.1.6-.3,1.2-.4,1.9,0,.1,0,.2,0,.3-.1.5-.3,1-.4,1.5,0,.2-.1.4-.2.6-.1.4-.3.8-.4,1.2,0,.2-.2.4-.2.7-.1.4-.3.8-.5,1.2,0,.2-.2.4-.3.6-.2.4-.4.9-.6,1.3,0,.1-.1.3-.2.4-.3.6-.6,1.1-.9,1.7,0,.1-.2.3-.2.4-.2.4-.5.8-.7,1.2-.1.2-.2.4-.4.6-.2.4-.5.7-.7,1-.1.2-.3.4-.4.6-.2.4-.5.7-.8,1s-.3.4-.4.5c0,0-.1.1-.1.2,4.9,3.1,10.5,4.8,16.4,4.8s11.6-1.7,16.4-4.8c0,0-.1-.1-.1-.2-.1-.2-.3-.3-.4-.5-.3-.3-.5-.7-.8-1-.1-.2-.3-.4-.4-.6-.2-.3-.5-.7-.7-1.1-.1-.2-.2-.4-.4-.6-.2-.4-.5-.8-.7-1.2,0-.1-.2-.3-.2-.4-.3-.6-.6-1.1-.9-1.7,0-.1-.1-.3-.2-.4-.2-.4-.4-.9-.6-1.3,0-.2-.2-.4-.3-.6-.2-.4-.3-.8-.5-1.2,0-.2-.2-.4-.2-.7-.1-.4-.3-.8-.4-1.2,0-.2-.1-.4-.2-.6-.2-.5-.3-1-.4-1.5,0-.1,0-.2,0-.3-.2-.6-.3-1.2-.4-1.9,0-.2,0-.4-.1-.5,0-.4-.2-.9-.2-1.4,0-.2,0-.5-.1-.7,0-.4-.1-.8-.2-1.3,0-.2,0-.5,0-.7,0-.4,0-.9-.1-1.3,0-.2,0-.4,0-.6,0-.6,0-1.3,0-1.9s0-1.3,0-1.9c0-.2,0-.4,0-.6h0Z"/>
      <path class="st1" d="M160.1,179.6c0-.7-.2-1.4-.3-2.2,0-.1,0-.2,0-.4-.1-.7-.3-1.3-.4-2,0-.1,0-.2,0-.4-.2-.7-.4-1.4-.6-2.1,0-.1-.1-.3-.2-.5-.2-.7-.5-1.4-.8-2.1,0,0,0,0,0,0-.3-.7-.6-1.3-.9-1.9,0-.1-.1-.3-.2-.4-.4-.6-.7-1.3-1.1-1.9,0-.1-.1-.2-.2-.3-.4-.6-.8-1.1-1.2-1.6,0,0,0-.1-.1-.2-4.1,5.3-6.4,11.9-6.4,18.6s2.3,13.3,6.4,18.6c0,0,0-.1.1-.2.4-.5.8-1.1,1.2-1.6,0-.1.1-.2.2-.3.4-.6.8-1.2,1.1-1.9,0-.1.1-.3.2-.4.3-.6.7-1.3.9-1.9,0,0,0,0,0,0,.3-.7.6-1.4.8-2.1,0-.1.1-.3.2-.5.2-.7.4-1.4.6-2.1,0-.1,0-.2,0-.3.2-.6.3-1.3.4-2,0-.1,0-.2,0-.4.1-.7.2-1.4.3-2.2,0-.2,0-.3,0-.5,0-.8.1-1.5.1-2.3s0-1.5-.1-2.3c0-.2,0-.3,0-.5h0Z"/>
      <path class="st1" d="M201.2,163.9c-.4.5-.8,1.1-1.2,1.6,0,.1-.1.2-.2.3-.4.6-.8,1.2-1.1,1.9,0,.1-.1.3-.2.4-.3.6-.7,1.3-.9,1.9,0,0,0,0,0,0-.3.7-.6,1.4-.8,2.1,0,.1-.1.3-.2.5-.2.7-.4,1.4-.6,2.1,0,.1,0,.2,0,.4-.2.6-.3,1.3-.4,2,0,.1,0,.2,0,.4-.1.7-.2,1.4-.3,2.2,0,.2,0,.3,0,.5,0,.8-.1,1.5-.1,2.3s0,1.5.1,2.3c0,.2,0,.3,0,.5,0,.7.2,1.4.3,2.2,0,.1,0,.2,0,.4.1.7.3,1.3.4,2,0,.1,0,.2,0,.3.2.7.4,1.4.6,2.1,0,.1.1.3.2.5.2.7.5,1.4.8,2.1,0,0,0,0,0,0,.3.7.6,1.3.9,1.9,0,.1.1.3.2.4.4.6.7,1.3,1.1,1.9,0,.1.1.2.2.3.4.6.8,1.1,1.2,1.6,0,0,0,.1.1.2,4.1-5.3,6.4-11.9,6.4-18.6s-2.3-13.3-6.4-18.6c0,0,0,.1-.1.2h0Z"/>
    </g>
  </g>
</svg>