<?xml version="1.0" encoding="UTF-8"?>
<svg xmlns="http://www.w3.org/2000/svg" xmlns:xlink="http://www.w3.org/1999/xlink" viewBox="0 0 433.84 250.48">
  <defs>
    <style>
      .cls-1 {
        fill: #616833;
      }

      .cls-2, .cls-3, .cls-4 {
        fill: #aaa61a;
      }

      .cls-5 {
        fill: #fff;
      }

      .cls-6 {
        fill: #68742a;
      }

      .cls-7 {
        fill: none;
      }

      .cls-3 {
        opacity: .06;
      }

      .cls-3, .cls-4 {
        mix-blend-mode: screen;
      }

      .cls-8 {
        isolation: isolate;
      }

      .cls-4 {
        opacity: .1;
      }

      .cls-9 {
        fill: #ffc776;
      }

      .cls-10 {
        clip-path: url(#clippath);
      }
    </style>
    <clipPath id="clippath">
      <polygon id="Cube_face_-_top-2" data-name="Cube face - top" class="cls-7" points="433.84 125.24 216.92 0 0 125.24 216.92 250.48 433.84 125.24"/>
    </clipPath>
  </defs>
  <g class="cls-8">
    <g id="_0" data-name="0">
      <g id="_1" data-name="1">
        <g>
          <g id="Axonometric_Cube" data-name="Axonometric Cube">
            <polygon id="Cube_face_-_top" data-name="Cube face - top" class="cls-2" points="433.84 125.24 216.92 0 0 125.24 216.92 250.48 433.84 125.24"/>
          </g>
          <g class="cls-10">
            <g>
              <path class="cls-9" d="M216.76,219.44c-.63,0-1.27-.14-1.75-.42L50.93,124.13c-.65-.37-.88-.92-.62-1.43,5.38-10.17,13.51-19.75,24.17-28.47,10.51-8.6,23.24-16.17,37.82-22.5,30.31-13.16,66.43-20.11,104.46-20.11,19.25,0,38.17,1.8,56.22,5.36,17.46,3.44,33.8,8.45,48.57,14.9,14.61,6.37,27.35,14,37.85,22.66,10.65,8.78,18.74,18.42,24.05,28.65.26.51.02,1.05-.63,1.42l-164.32,94.42c-.48.28-1.12.42-1.75.42Z"/>
              <g>
                <path class="cls-2" d="M216.76,216.56c-.19,0-.31-.04-.34-.05L53.73,122.43c5.19-9.23,12.78-17.96,22.57-25.98,10.31-8.44,22.8-15.87,37.14-22.09,29.95-13,65.68-19.87,103.32-19.87,19.07,0,37.8,1.78,55.67,5.31,17.25,3.4,33.4,8.35,47.98,14.71,14.37,6.27,26.87,13.75,37.17,22.24,9.78,8.07,17.33,16.86,22.47,26.14l-162.97,93.64s-.13.03-.32.03Z"/>
                <path class="cls-5" d="M216.76,216.78c-.22,0-.37-.04-.43-.07L53.43,122.52l.11-.19c5.2-9.25,12.81-18.01,22.62-26.04,10.32-8.45,22.84-15.89,37.2-22.12,29.98-13.01,65.74-19.89,103.4-19.89,19.08,0,37.83,1.79,55.71,5.31,17.27,3.4,33.43,8.36,48.03,14.73,14.39,6.28,26.91,13.77,37.22,22.27,9.8,8.08,17.37,16.9,22.52,26.21l.11.19-.19.11-163.02,93.67h-.06s-.14.03-.32.03ZM216.52,216.32s.1.02.24.02c.11,0,.2-.01.24-.02l162.75-93.51c-5.12-9.19-12.62-17.9-22.31-25.89-10.28-8.48-22.77-15.95-37.12-22.21-14.57-6.35-30.7-11.3-47.94-14.7-17.85-3.52-36.57-5.3-55.62-5.3-37.61,0-73.3,6.87-103.23,19.85-14.32,6.22-26.8,13.64-37.09,22.06-9.7,7.94-17.23,16.59-22.41,25.73l162.5,93.97s0,0,0,0Z"/>
              </g>
              <path class="cls-2" d="M217.25,156.27l114.32-12.7-21.42,29.83-85.5,49.37c-4.13,2.38-10.82,2.38-14.95,0l-85.06-49.11-21.42-29.83,114.03,12.45Z"/>
            </g>
            <path class="cls-4" d="M430.39,128.36l-4.83,2.79L206.69,4.78l4.83-2.79,218.87,126.37ZM201.41,7.83l-4.83,2.79,218.87,126.37,4.83-2.79L201.41,7.83ZM191.3,13.67l-4.83,2.79,218.87,126.37,4.83-2.79L191.3,13.67ZM181.19,19.5l-4.83,2.79,218.87,126.37,4.83-2.79L181.19,19.5ZM171.09,25.34l-4.83,2.79,218.87,126.37,4.83-2.79L171.09,25.34ZM160.98,31.18l-4.83,2.79,218.87,126.37,4.83-2.79L160.98,31.18ZM150.87,37.01l-4.83,2.79,218.87,126.37,4.83-2.79L150.87,37.01ZM140.76,42.85l-4.83,2.79,218.87,126.37,4.83-2.79L140.76,42.85ZM130.65,48.69l-4.83,2.79,218.87,126.37,4.83-2.79L130.65,48.69ZM120.54,54.52l-4.83,2.79,218.87,126.37,4.83-2.79L120.54,54.52ZM110.43,60.36l-4.83,2.79,218.87,126.37,4.83-2.79L110.43,60.36ZM100.32,66.2l-4.83,2.79,218.87,126.37,4.83-2.79L100.32,66.2ZM90.21,72.03l-4.83,2.79,218.87,126.37,4.83-2.79L90.21,72.03ZM80.1,77.87l-4.83,2.79,218.87,126.37,4.83-2.79L80.1,77.87ZM69.99,83.71l-4.83,2.79,218.87,126.37,4.83-2.79L69.99,83.71ZM59.89,89.54l-4.83,2.79,218.87,126.37,4.83-2.79L59.89,89.54ZM49.78,95.38l-4.83,2.79,218.87,126.37,4.83-2.79L49.78,95.38ZM39.67,101.21l-4.83,2.79,218.87,126.37,4.83-2.79L39.67,101.21ZM29.56,107.05l-4.83,2.79,218.87,126.37,4.83-2.79L29.56,107.05ZM19.45,112.89l-4.83,2.79,218.87,126.37,4.83-2.79L19.45,112.89ZM9.34,118.72l-4.83,2.79,218.87,126.37,4.83-2.79L9.34,118.72Z"/>
            <path class="cls-3" d="M223.38,1.99l4.83,2.79L9.34,131.15l-4.83-2.79L223.38,1.99ZM14.62,134.2l4.83,2.79L238.32,10.62l-4.83-2.79L14.62,134.2ZM24.73,140.03l4.83,2.79L248.43,16.46l-4.83-2.79L24.73,140.03ZM34.84,145.87l4.83,2.79L258.54,22.29l-4.83-2.79L34.84,145.87ZM44.95,151.71l4.83,2.79L268.65,28.13l-4.83-2.79L44.95,151.71ZM55.06,157.54l4.83,2.79,218.87-126.37-4.83-2.79L55.06,157.54ZM65.17,163.38l4.83,2.79,218.87-126.37-4.83-2.79-218.87,126.37ZM75.27,169.22l4.83,2.79,218.87-126.37-4.83-2.79-218.87,126.37ZM85.38,175.05l4.83,2.79,218.87-126.37-4.83-2.79-218.87,126.37ZM95.49,180.89l4.83,2.79,218.87-126.37-4.83-2.79-218.87,126.37ZM105.6,186.72l4.83,2.79,218.87-126.37-4.83-2.79-218.87,126.37ZM115.71,192.56l4.83,2.79,218.87-126.37-4.83-2.79-218.87,126.37ZM125.82,198.4l4.83,2.79,218.87-126.37-4.83-2.79-218.87,126.37ZM135.93,204.23l4.83,2.79,218.87-126.37-4.83-2.79-218.87,126.37ZM146.04,210.07l4.83,2.79,218.87-126.37-4.83-2.79-218.87,126.37ZM156.15,215.91l4.83,2.79,218.87-126.37-4.83-2.79-218.87,126.37ZM166.26,221.74l4.83,2.79,218.87-126.37-4.83-2.79-218.87,126.37ZM176.37,227.58l4.83,2.79,218.87-126.37-4.83-2.79-218.87,126.37ZM186.47,233.42l4.83,2.79,218.87-126.37-4.83-2.79-218.87,126.37ZM196.58,239.25l4.83,2.79,218.87-126.37-4.83-2.79-218.87,126.37ZM206.69,245.09l4.83,2.79,218.87-126.37-4.83-2.79-218.87,126.37Z"/>
            <g>
              <g>
                <path class="cls-9" d="M132.22,168.18l84.7,48.9,84.7-48.9c-46.73-33.73-122.57-33.74-169.4,0ZM216.91,214.07l-44.85-25.89,44.85-25.89,44.85,25.89-44.85,25.89Z"/>
                <path class="cls-9" d="M211.28,213.82c-3.12,1.8-3.12,4.71,0,6.51,3.12,1.8,8.17,1.8,11.28,0,3.12-1.8,3.12-4.71,0-6.51-3.12-1.8-8.17-1.8-11.28,0Z"/>
                <path class="cls-9" d="M211.28,184.92c-3.12,1.8-3.12,4.71,0,6.51,3.12,1.8,8.17,1.8,11.28,0,3.12-1.8,3.12-4.71,0-6.51-3.12-1.8-8.17-1.8-11.28,0Z"/>
                <path class="cls-9" d="M212.48,159.72c-2.45,1.42-2.45,3.71,0,5.13s6.43,1.42,8.88,0c2.45-1.42,2.45-3.71,0-5.13-2.45-1.42-6.43-1.42-8.88,0Z"/>
                <path class="cls-9" d="M166.17,186.93c.3-.48.79-.93,1.46-1.32,2.45-1.42,6.43-1.42,8.88,0,2.45,1.42,2.45,3.71,0,5.13-.67.39-1.45.67-2.28.84l-8.06-4.65Z"/>
                <path class="cls-9" d="M266.2,185.62c.75.43,1.27.95,1.56,1.49l-7.86,4.54c-.95-.17-1.84-.47-2.58-.9-2.45-1.42-2.45-3.71,0-5.13,2.45-1.42,6.43-1.42,8.88,0Z"/>
                <path class="cls-9" d="M383.46,123.18c-5.31-10.23-13.41-19.86-24.05-28.65-10.5-8.66-23.23-16.28-37.85-22.66-14.78-6.45-31.12-11.46-48.57-14.9-18.05-3.56-36.97-5.36-56.22-5.36-38.03,0-74.15,6.95-104.46,20.11-14.58,6.33-27.31,13.9-37.82,22.5-10.66,8.72-18.79,18.3-24.17,28.47-.27.51-.03,1.05.62,1.43l53.49,30.93,20.23,28.17,85.06,49.11c4.13,2.38,10.82,2.38,14.95,0l85.5-49.37,20.3-28.28,52.37-30.09c.65-.37.89-.92.63-1.42ZM322.87,155.68l-12.72,17.72-85.5,49.37c-4.13,2.38-10.82,2.38-14.95,0l-85.06-49.11-12.69-17.67-58.22-33.55c5.19-9.23,12.78-17.96,22.57-25.98,10.31-8.44,22.8-15.87,37.14-22.09,29.95-13,65.68-19.87,103.32-19.87,19.07,0,37.8,1.78,55.67,5.31,17.25,3.4,33.4,8.35,47.98,14.71,14.37,6.27,26.87,13.75,37.17,22.24,9.78,8.07,17.33,16.86,22.47,26.14l-57.17,32.79Z"/>
              </g>
              <path class="cls-5" d="M216.76,216.78c-.22,0-.37-.04-.43-.07L53.43,122.52l.11-.19c5.2-9.25,12.81-18.01,22.62-26.04,10.32-8.45,22.84-15.89,37.2-22.12,29.98-13.01,65.74-19.89,103.4-19.89,19.08,0,37.83,1.79,55.71,5.31,17.27,3.4,33.43,8.36,48.03,14.73,14.39,6.28,26.91,13.77,37.22,22.27,9.8,8.08,17.37,16.9,22.52,26.21l.11.19-.19.11-163.02,93.67h-.06s-.14.03-.32.03ZM216.52,216.32s.1.02.24.02c.11,0,.2-.01.24-.02l162.75-93.51c-5.12-9.19-12.62-17.9-22.31-25.89-10.28-8.48-22.77-15.95-37.12-22.21-14.57-6.35-30.7-11.3-47.94-14.7-17.85-3.52-36.57-5.3-55.62-5.3-37.61,0-73.3,6.87-103.23,19.85-14.32,6.22-26.8,13.64-37.09,22.06-9.7,7.94-17.23,16.59-22.41,25.73l162.5,93.97s0,0,0,0Z"/>
              <path class="cls-5" d="M216.92,221.9c-2.08,0-4.17-.46-5.75-1.37-1.58-.91-2.45-2.13-2.45-3.45s.87-2.54,2.45-3.45c3.17-1.83,8.33-1.83,11.5,0,1.58.91,2.45,2.13,2.45,3.45s-.87,2.54-2.45,3.45c-1.59.92-3.67,1.37-5.75,1.37ZM216.92,212.69c-2,0-4.01.44-5.53,1.32-1.44.83-2.23,1.92-2.23,3.07s.79,2.24,2.23,3.07c3.05,1.76,8.01,1.76,11.06,0,1.44-.83,2.23-1.92,2.23-3.07s-.79-2.24-2.23-3.07c-1.52-.88-3.53-1.32-5.53-1.32Z"/>
              <path class="cls-5" d="M214.6,215.74c-1.28.74-1.28,1.94,0,2.68,1.28.74,3.36.74,4.64,0,1.28-.74,1.28-1.94,0-2.68s-3.36-.74-4.64,0Z"/>
              <path class="cls-5" d="M216.08,187.7c-.46.27-.46.7,0,.97s1.21.27,1.67,0c.46-.27.46-.7,0-.97-.46-.27-1.21-.27-1.67,0Z"/>
              <path class="cls-5" d="M216.08,161.8c-.46.27-.46.7,0,.97s1.21.27,1.67,0c.46-.27.46-.7,0-.97-.46-.27-1.21-.27-1.67,0Z"/>
              <path class="cls-5" d="M171.23,187.7c-.46.27-.46.7,0,.97.46.27,1.21.27,1.67,0,.46-.27.46-.7,0-.97-.46-.27-1.21-.27-1.67,0Z"/>
              <path class="cls-5" d="M260.93,187.7c-.46.27-.46.7,0,.97.46.27,1.21.27,1.67,0,.46-.27.46-.7,0-.97s-1.21-.27-1.67,0Z"/>
              <path class="cls-5" d="M190.53,216.6c-.46.27-.46.7,0,.97s1.21.27,1.67,0c.46-.27.46-.7,0-.97-.46-.27-1.21-.27-1.67,0Z"/>
              <path class="cls-5" d="M242.23,216.6c-.46.27-.46.7,0,.97s1.21.27,1.67,0c.46-.27.46-.7,0-.97-.46-.27-1.21-.27-1.67,0Z"/>
            </g>
          </g>
        </g>
      </g>
      <polygon id="Cube_face_-_top-3" data-name="Cube face - top" class="cls-7" points="433.84 125.24 216.92 0 0 125.24 216.92 250.48 433.84 125.24"/>
      <polygon class="cls-6" points="152.45 21.14 0 106.8 0 125.46 152.45 39.8 152.45 21.14"/>
      <polygon class="cls-6" points="281.38 21.14 433.84 106.8 433.84 125.46 281.38 39.8 281.38 21.14"/>
      <rect class="cls-1" x="152.45" y="21.14" width="128.93" height="18.66"/>
    </g>
  </g>
</svg>