<?xml version="1.0" encoding="UTF-8"?>
<svg id="Layer_2" data-name="Layer 2" xmlns="http://www.w3.org/2000/svg" viewBox="0 0 703.58 818.72">
  <defs>
    <style>
      .cls-1 {
        fill: #efb233;
      }

      .cls-2 {
        fill: #256995;
      }

      .cls-3 {
        fill: none;
      }

      .cls-4 {
        fill: #2c709b;
      }

      .cls-5 {
        fill: #03365b;
      }

      .cls-6 {
        fill: #dedcd6;
      }
    </style>
  </defs>
  <g id="Layer_1-2" data-name="Layer 1">
    <g>
      <path class="cls-3" d="M81.35,662.37c-7.71.43-13.81,5.18-17.35,11.73-11,20.32-12.4,90.71,11.01,103.07,24.13,12.74,34.28-25.79,35.51-42.54,1.52-20.49,1.42-73.96-29.18-72.26Z"/>
      <path class="cls-4" d="M102.5,317.69c2.36,43.8,21.7,90.99,50.06,123.94,10.66,12.39,24.26,24.45,38.97,31.51-4.87-15.6-6.63-31.14-6-47.5.05-1.21-.75-3.72.99-3.48,1.8,9.45,9.37,18.65,15.5,26.01,20.66,24.78,50.22,43.42,77.02,60.97-5.14-13.46-6.79-28.1-7.52-42.41-.07-.95,2.02-.75,2.51-.6.78.25,8.77,10.79,10.47,12.55,17.37,17.93,35.23,33.31,51.06,52.72,5.33,6.54,10.59,13.22,15.96,19.75,0-24.78-2.2-49.54-.35-74.34-.94-4.96-4.62-7.78-8.03-11.25-11.8-12.04-65.72-57.29-80-57.32-4.33,0-10.39,1.79-15.07,1.96-20.75.73-42.42-1.21-62.09-8.01-5.58-1.93-13.59-7.04-18.7-8.42-1.95-.53-3.64.54-3.75.38-.19-.26.33-1.85-.27-2.69-1.47-2.06-17.02-11.95-20.94-15.38-19.01-16.6-29.57-37.24-37.32-60.92-.54-1.66-.57-3.31-.49-5.02-3.16-1.04-2.14,5.58-2.04,7.55Z"/>
      <path class="cls-4" d="M526.53,398.16c3.29,22.81.36,45.69-4.98,67.99,17.8-13.49,34.31-31.27,46.41-50.08,3.17-4.93,12.77-20.72,13.4-25.65.18-1.39-1.07-4.03-.81-4.26.23-.21,2.1.4,2.76-.18.36-.32,3.29-7.65,3.72-8.85,7.6-21.37,10.83-46.4,12.52-68.97-3.47-.81-1.48,3.81-2.22,6.28-7.04,23.67-19.41,43.61-36.47,60.75-11.12,8.05-20.99,18.82-34.32,22.98Z"/>
      <path class="cls-5" d="M127.56,464.62c56.96,71.99,152.1,91.57,223.33,144.43,59.96-48.24,139.03-65.61,196.65-117.38,72.03-64.72,96.42-172.25,69.25-264.28-7.44-25.2-18.78-49.21-32.09-71.74,38.68-34.45,54.16-85.31,33-134.17-3.03-7-7.37-13.25-10.19-20.32-2.58-.29-1.59,0-2.01,1.45-16.1,54.86-52.37,72.04-102.45,91.44-98.92-42.1-207.31-40.62-306.78-1.09-22.65-10.02-46.68-17.85-65.75-34.29C114.22,44.6,97.94,21.83,95.53.15c-2.33-.5-1.61.29-2.24,1.28-27.08,42.53-25.92,99.35,7.27,138.18,4.77,5.59,11.01,10.38,15.8,16.02-59.64,94.94-59.34,219.83,11.2,308.98ZM457.05,389.14c-8.38-.53-18.29-3.74-26.06-4.02-10.2-.36-40.23,21.96-50.76,27.21l-26.68,20.8,31.8-46.69c5.18-10.47,12.25-20.53,14.12-32.21-16.27-3.86-14.3-17.71-18.21-30.31-2.95-9.52-7.89-17.31-13.72-25.26,2.05-1.29,12.37-8.6,13.96-7.49,9.65,23.69,32.54,43.92,58.57,46.95.81.09,3.6.37,1.96-.98-7.1-1.67-13.49-7.86-18.48-13.01-4.52-1.49-11.98-12.63-13.53-17-.33-.92.44-2.07.22-2.78-.11-.34-3.92-3.19-2.68-6.21l18.01,10.48c5.9,3.2,13.21,3.59,18.98,6.52.57.29,1.55.16,2,1,.09-.13,1.69-.94,2-1,2.32-.43,5.52.31,8,0,9.9-1.25,17.81-3.67,27-7-.03-3.86,3.63-2.52,6-4,9.08-5.67,21.79-26.44,24.35-36.11,4.41-16.61.31-31.98-4.35-47.88l15-1.01c-2.64-5.29-5.58-10.53-9.48-15.03-.51-.83-.89-2.01-.39-2.86,1.24-2.12,28.43-14.81,32.4-17.99,15.87,19.5,27.06,43.11,31.99,67.86,15.93,79.98-41.16,143.12-122,138ZM192.53,220.16c.41,1.69-1.36.64-1.79,1.11-.22.24.69,1.88.35,2.89-2.64,7.96-2.84,12.03-4.56,19.32-.18.78-1.99.63-2.02,1.24-.04.91.91,3.48,1.02,5.43.43,7.35.8,12.86,3,20,1.91,6.18,8.99,16.84,9,21,3.36.18,6.12,6.33,8,8,.59.52,1.99,1.19,3,2,3.18,2.55,8.39,4.09,11,8,.66.06,1.35-.08,2,0,4.45.57,11.25,4.43,13.69,4.98,3.35.75,13.55,1.18,17.31,1.02,7.06-.3,27.66-5.93,33.28-10.01,1.12-.81.47-2.22,1.4-3.03,1.84-1.6,4.42-3.21,6.31-4.96-.61,3.32-1.5,7.65-2.78,10.71-2.24,5.33-9.35,14.88-14.21,17.29-4.64,6.22-11.73,9.92-18.75,12.77-2.34.95-2.09,1.44.22,1.23,10.54-.97,27.86-8.33,36.46-14.56,11.8-8.54,19.01-21.29,26.66-33.36l13.41,7.44c-5.84,6.86-10.8,13.29-14.18,21.8-3.07,7.71-3.92,20.3-6.95,26.05-3.01,5.72-11.95,5.54-11.96,10.1,0,4.58,11.32,24.66,14.28,29.82,4.09,7.13,8.93,14.62,13.58,21.42,5.09,7.44,11.67,14.29,15.73,22.26-11.24-8.54-22.59-16.94-34.6-24.39-6.96-4.32-34.05-20.71-40.37-20.61-7.48.11-17.96,3.49-26.06,4.02-45.45,2.97-87.74-16.58-110.66-56.32-28.16-48.82-12.83-106.46,18.28-149.59,4.27,2.19,32.73,16.26,33.77,18.04.72,1.24-7.44,14.79-8.88,17.88l16,1.01ZM240,274.19c12.96,5.32,24.22-1.09,30.02-12.94,2.43,2.11,16.45,7.46,17.38,9.05.88,1.51-3.24,8.27-4.41,9.83-10.62,14.22-30.21,18.74-47.1,14.19-1.35-.36-1.41-1.8-1.57-1.86-.64-.24-1.93.65-2.79.24-20.14-9.52-29.63-33.08-20.85-53.91.96-2.29,4.13-8.98,6.49-9.44,2.77-.54,15.48,8.17,18.88,9.79,1.13,1.54-3.55,3.5-4.2,4.31-8.31,10.33-3.99,25.75,8.15,30.73ZM334.48,340.6c.54-5.38,10.73-33.57,16.44-32.4,1.5.31,8.18,11.8,9.15,13.91,9.75,21.06,5.73,44.18-3.37,64.72-.74,1.68-5.67,11.87-6.19,12.32-1.63,1.38-1.74-.53-2.22-1.28-8.86-13.7-15.44-41.14-13.82-57.27ZM473.07,250.12l-7.53-10.95c4.62-.66,14.77-9.43,18.46-9.05,4.54.46,9.94,15.26,10.43,19.64.76,6.77-.81,14.71-3.29,21.02-11.06,28.25-50.94,34.63-70.57,10.89-2.26-2.74-7.79-9.87-4.4-12.39,1.86-1.38,14.09-7.55,15.76-7.2,8.33,24,48.29,15.22,41.15-11.95ZM597.32,314.43c.73-2.46-1.26-7.08,2.22-6.28-1.69,22.58-4.92,47.61-12.52,68.97-.43,1.2-3.36,8.53-3.72,8.85-.66.57-2.53-.03-2.76.18-.26.23.99,2.87.81,4.26-.62,4.93-10.22,20.71-13.4,25.65-12.1,18.81-28.6,36.6-46.41,50.08,5.34-22.3,8.27-45.18,4.98-67.99,13.33-4.16,23.2-14.94,34.32-22.98,17.06-17.13,29.43-37.08,36.47-60.75ZM111.4,100.79c-5.61-11.07-11.03-25.23-11.85-37.64,2.82,1.64,5.26,5.78,7.32,7.65,3.3,3,8.83,7.48,12.44,10.3,4.43,3.47,17.56,10.94,19.23,14.04,1.03,1.91,3.34.6,5.31,1.01.79.16.68,1.72,1.93,2.27,8.15,3.63,15.91,8.12,23.76,11.71,1.71.78,4.3,1.24,6,2,.62.28,1.74.45,3,1,6.13,2.7,12.4,5.14,18,9,6.34.63,19.61,9.07,25.25,13.04,2.03,1.43,2.37,1.12,2.51,1.23,1.66,1.29,3.94,3.58,2.23,5.73.29-.08.66.05,1,0,6.22-.91,2.7-.23,6,2,2.53,1.72,4.56,3.17,7,5,1.89,1.42,1.85,2.9,2,3,.48.34,1.87.4,4,2,3.1,2.32,5.91,4.57,9,7,8.17,6.43,14.12,10.47,22,18,17.3,16.53,31.73,35.41,49,52,3.49,3.35,10.01,9.15,13.76,12.01,1.11.85,10.14,6.81,10.75,6.99.7.21.26-1.4,1.19-2,3.39-2.19,9.54-4.93,12.3-7,.14-.11-.51-2.79,2-2,.06-.05.9-.05,1,0,.9-6.29,5.85-7.35,9.03-10.47,5.4-5.3,10.14-10.3,14.97-15.53,1.81-1.96,4.82-3.72,5-4,.19-.29-.39-1.87.31-2.65,1.48-1.64,3.65-4.23,5.69-4.35-.1-.23-.09-1.66,0-2,.33-1.27,1.69-1.54,2-2,4.71-6.92,31.72-32.54,39-36,.26-.12.7.11,1,0l.56-.56c.16-.22.32-.42.44-.44.56-.11,1.35,0,2,0v-1c1.75-4.91,8.5-7.41,12-10,3.61-2.68,5.94-4.73,10-7,2.34-1.31.12-1.5,5-2,1.74-3.69,6.87-7.9,11-6.01-3.08-4,3.99-4.36,7.24-6.25,27.48-15.95,60.03-26.48,85.76-44.74.24-.17,2.26-2.24,3.94-3.54,6.5-4.99,11.97-11.03,18.05-16.46l-4.45,21.04c-1.71,4.55-4.38,8.68-6.54,12.96-13.51,26.83-30.58,39.54-55.28,56.22-5.81,3.92-12.92,9.59-19.72,10.78-.01.35.09.78,0,1-.54,1.37-9.34,7.49-11.51,8.99-6.38,4.38-13.38,7.94-19.78,11.97-1.44.91-2.4,5.28-5.71,3.04.04.03.06.76,0,1-.1.41.12.82-.51.99h-1.49c.07.28-.02.66,0,1.01.15,3.08-1.57,1.51-3.49,2.97-10.61,8.04-21.2,16.62-31.51,25.03-2.03,1.66-3.82,3.45-6,5-.64.45-1.07,1.07-2,1-.99,3.63-1.39,1.5-3,3-4.87,4.54-10.4,10.53-16,14-2.37,1.47-4.71.79-5.01,1-.33.24.91,2.13.5,3.04-.52,1.18-4.15,2.92-5.5,3.95-4.55,3.47-10.34,8.34-14,10-.48.22-6.4,4.84-8,6-3.22,2.34-3.51,2.95-7,5-.07.04.18,1.27-.33,1.63-6.89,4.8-14.32,8.28-21.37,12.68-.69.43-.98,2.48-1.82,2.69-1.88.48-19.6-13.01-22.47-15.01-2.83-1.97-5.3-4.03-8-6-4.72-3.44-11.5-5.69-14-11-5.28-.18-37.08-29.55-43.77-35.01-6.94-5.67-14.17-11.34-21.23-16.99-3.63-2.9-8.29-7.9-11-10-4.64-3.6-11.91-8.46-17-12-2.3-1.6-5.2-3.07-8-5-1.97-1.36-4.01-2.64-6-4-3.45-2.36-5.96-3.02-10-7-1.88-1.43-5.64-1.2-5-4-.29-.12-.72.12-1,0-2.51-1.09-5.12-1.48-7-4-3.84.06-35.09-22.94-39.52-27.03-3.99-3.69-7.24-8.3-10.48-11.97-5.95-6.73-10.89-11.97-15.14-20.36ZM104.53,310.15c-.09,1.71-.06,3.36.49,5.02,7.74,23.69,18.3,44.33,37.32,60.92,3.93,3.43,19.48,13.32,20.94,15.38.59.84.08,2.43.27,2.69.11.15,1.8-.91,3.75-.38,5.11,1.38,13.12,6.49,18.7,8.42,19.67,6.79,41.33,8.74,62.09,8.01,4.67-.16,10.73-1.97,15.07-1.96,14.28.03,68.2,45.28,80,57.32,3.4,3.47,7.09,6.29,8.03,11.25-1.86,24.8.35,49.56.35,74.34-5.36-6.54-10.63-13.22-15.96-19.75-15.83-19.41-33.69-34.79-51.06-52.72-1.7-1.76-9.69-12.3-10.47-12.55-.49-.16-2.58-.35-2.51.6.74,14.3,2.38,28.94,7.52,42.41-26.8-17.55-56.36-36.19-77.02-60.97-6.13-7.36-13.7-16.55-15.5-26.01-1.74-.24-.94,2.27-.99,3.48-.64,16.36,1.13,31.9,6,47.5-14.71-7.06-28.31-19.13-38.97-31.51-28.37-32.95-47.7-80.14-50.06-123.94-.11-1.96-1.12-8.59,2.04-7.55Z"/>
      <path class="cls-1" d="M236.05,239.14c-3.4-1.62-16.11-10.32-18.88-9.79-2.36.46-5.53,7.15-6.49,9.44-8.78,20.83.71,44.39,20.85,53.91.86.41,2.15-.48,2.79-.24.16.06.22,1.5,1.57,1.86,16.9,4.55,36.48.03,47.1-14.19,1.17-1.57,5.29-8.32,4.41-9.83-.93-1.6-14.95-6.94-17.38-9.05-5.8,11.86-17.06,18.26-30.02,12.94-12.14-4.98-16.46-20.4-8.15-30.73.65-.81,5.33-2.78,4.2-4.31Z"/>
      <path class="cls-1" d="M431.92,262.07c-1.67-.35-13.9,5.82-15.76,7.2-3.39,2.52,2.14,9.66,4.4,12.39,19.64,23.75,59.51,17.36,70.57-10.89,2.47-6.32,4.04-14.25,3.29-21.02-.49-4.38-5.88-19.18-10.43-19.64-3.69-.38-13.85,8.39-18.46,9.05l7.53,10.95c7.15,27.17-32.82,35.95-41.15,11.95Z"/>
      <path class="cls-4" d="M435.53,324.15l-.99,2.99c2.85-1.03,4.77,1.58,6,2.01.67.23,1.32.81,2,1-.7-3.39,1.89-1.37,4,0,12.35,1.82,19.18.82,31-3l.26-3.62c-.21-.48-.19-1.44.24-3.38l-.24,3.38c.52,1.21,2.43-.54,2.74,2.62,1.95-.74,2.69-1.4,4-2,5.07-2.32,6.37-3.13,11-6,.52-.32,1.23-.48,2-1-5.19-1.4-1.88-2.03-1.99-4.41-.01-.29-3.34-2.27-3.01-4.58l6.99.98-2.99-2.98c1.32-.06,2.67.05,3.99-.01.04-.66-.08-1.33,0-1.99,2.08-.3,2.27-.09,1.98,1.98-.66.06-1.33-.02-1.99,0-.27,4.69,1.65,4.11,2.96.47l5.04-4.46c1.54,6.36-4.31,4.36-5,5-.61.56.19,3.83,2.01,4,27.5-22.95,35.18-59.55,19-92l-15,1.01c4.66,15.9,8.76,31.27,4.35,47.88-2.57,9.67-15.27,30.44-24.35,36.11-2.37,1.48-6.03.14-6,4-9.19,3.33-17.1,5.75-27,7-2.48.31-5.68-.43-8,0-.31.06-1.91.87-2,1-.45-.84-1.43-.71-2-1-5.77-2.93-13.09-3.32-18.98-6.52l-18.01-10.48c-1.24,3.02,2.57,5.87,2.68,6.21.22.7-.54,1.86-.22,2.78,1.56,4.37,9.02,15.52,13.53,17,1.88.62,4.39.99,7,2l4.99-2ZM481.56,319.36c-.68,0-1.23-.55-1.23-1.23s.55-1.23,1.23-1.23,1.23.55,1.23,1.23-.55,1.23-1.23,1.23ZM492.56,312.89c.68,0,1.23.55,1.23,1.23s-.55,1.23-1.23,1.23-1.23-.55-1.23-1.23.55-1.23,1.23-1.23ZM475.53,323.16c.68.35-.59,1.7-1.99.98-.68-.35.59-1.7,1.99-.98ZM471.53,322.15v1.99s-3.99,0-3.99,0c-1.21-.55,3.44-2.53,3.99-1.99ZM466.53,323.16v.98c-4.16.5-4.16-1.48,0-.98ZM449.35,322.33c3.46,2.18-1.55,3.83-3.8,4.82l3-2.5-3.01-2.49c1.16.13,2.91-.4,3.81.17Z"/>
      <path class="cls-4" d="M170.63,248.56c.01,1.12,1.65,3.69.92,5.58,2.36-.37-.6-3.99,2.99-2.99v1.99c1.72.45.61-1.43,1.11-1.89.66-.6,2.84,1.08,3.89.89l-4.99-5.99c5.82-2.53,6.55,2.31,11,3.99-.11-1.95-1.07-4.52-1.02-5.43.03-.61,1.84-.46,2.02-1.24,1.72-7.29,1.92-11.36,4.56-19.32.34-1.01-.57-2.65-.35-2.89.43-.47,2.2.58,1.79-1.11l-16-1.01c-3.94,8.44-7.29,17.45-8,27,7.45,1.6,2.09,1.99,2.09,2.41Z"/>
      <path class="cls-2" d="M174.53,246.16l4.99,5.99c-1.05.2-3.23-1.49-3.89-.89-.5.46.61,2.34-1.1,1.89v-1.99c-3.6-1-.64,2.61-3,2.99.73-1.89-.91-4.46-.92-5.58,0-.43,5.36-.81-2.09-2.41-.62,8.45.39,14,2,22,3.88-2.83,4.89,1.88,0,1,.07.32-.08.69,0,1,1.05,1.13,7.78.33,8-.01,2.16-3.41-3.5-3.28-6-4l1.02-3.99c2.7,2.37,1.66,4.3,5.98,2-1.58,7.91,6.6.09,5.01,7.99l3.99-2c-2.2-7.14-2.57-12.65-3-20-4.45-1.69-5.18-6.52-11-3.99Z"/>
      <path class="cls-4" d="M179.53,264.15c-4.32,2.3-3.28.37-5.98-2l-1.02,3.99c2.5.71,8.16.59,6,4-.21.34-6.95,1.14-8,.01,5.38,21.44,17.94,36.56,36,48,9.05,5.73,11.3,7.18,22,10,7.94,2.09,10.53,2.74,19,3,1,.03,2,.01,3,0,.33,0,.67.01,1,0,.66-.03,1.34.05,2,0,2.44-.17,3.72-.8,5-1,.33-.05.68.06,1,0,6.28-1.14,11.18-2.1,17-5,4.85-2.41,11.96-11.97,14.21-17.29,1.29-3.05,2.18-7.39,2.78-10.71-1.89,1.75-4.48,3.36-6.31,4.96-.93.81-.28,2.22-1.4,3.03-5.62,4.08-26.22,9.71-33.28,10.01-3.76.16-13.96-.27-17.31-1.02-2.44-.55-9.24-4.41-13.69-4.98-.65-.08-1.34.06-2,0-2.61-3.91-7.82-5.45-11-8-1.01-.81-2.41-1.48-3-2-1.88-1.67-4.64-7.82-8-8-.01-4.16-7.09-14.82-9-21l-3.99,2c1.59-7.91-6.59-.08-5.01-7.99Z"/>
      <path class="cls-4" d="M137.02,133.12c4.42,4.09,35.68,27.08,39.52,27.03,1.88,2.52,4.49,2.91,7,4,.28.12.71-.12,1,0-.64,2.8,3.12,2.57,5,4,4.04,3.98,6.55,4.64,10,7,1.99,1.36,4.03,2.64,6,4,2.8,1.93,5.7,3.4,8,5,5.09,3.54,12.36,8.4,17,12,2.71,2.1,7.37,7.1,11,10,7.06,5.65,14.29,11.31,21.23,16.99,6.69,5.47,38.49,34.84,43.77,35.01,2.5,5.31,9.28,7.56,14,11,2.7,1.97,5.17,4.03,8,6,2.87,1.99,20.59,15.49,22.47,15.01.84-.22,1.13-2.26,1.82-2.69,7.06-4.4,14.48-7.89,21.37-12.68.51-.35.26-1.58.33-1.63,3.49-2.05,3.78-2.66,7-5,1.6-1.16,7.52-5.78,8-6,3.66-1.66,9.45-6.53,14-10,1.35-1.03,4.97-2.77,5.5-3.95.41-.92-.83-2.81-.5-3.04.3-.22,2.64.46,5.01-1,5.6-3.47,11.13-9.46,16-14,1.61-1.5,2.01.63,3-3,.93.07,1.36-.55,2-1,2.18-1.55,3.97-3.34,6-5,10.31-8.41,20.9-16.99,31.51-25.03,1.93-1.46,3.64.11,3.49-2.97-.02-.34.07-.73,0-1h1.49c.64-.18.42-.59.51-1,.06-.24.04-.97,0-1,3.31,2.24,4.27-2.13,5.71-3.04,6.39-4.03,13.4-7.59,19.78-11.97,2.17-1.49,10.97-7.62,11.51-8.99.09-.22-.01-.65,0-1,6.8-1.19,13.91-6.86,19.72-10.78,24.7-16.68,41.78-29.39,55.28-56.22,2.16-4.29,4.83-8.41,6.54-12.96l4.45-21.04c-6.07,5.44-11.55,11.47-18.05,16.46-1.69,1.3-3.71,3.37-3.94,3.54-25.73,18.26-58.28,28.79-85.76,44.74-3.26,1.89-10.32,2.26-7.24,6.25-4.12-1.89-9.26,2.32-11,6.01-4.88.5-2.66.69-5,2-4.06,2.27-6.39,4.32-10,7-3.5,2.59-10.25,5.09-12,10v1c-.65,0-1.44-.11-2,0-.12.02-.28.22-.44.44l-.56.56c-.3.11-.74-.12-1,0-7.28,3.46-34.29,29.08-39,36-.31.46-1.67.73-2,2-.09.34-.1,1.77,0,2-2.04.12-4.21,2.71-5.69,4.35-.7.78-.13,2.36-.31,2.65-.18.28-3.19,2.04-5,4-4.83,5.23-9.58,10.22-14.97,15.53-3.18,3.12-8.13,4.19-9.03,10.47-.1-.05-.94-.05-1,0-2.51-.79-1.86,1.89-2,2-2.76,2.07-8.91,4.81-12.3,7-.93.6-.49,2.2-1.19,2-.62-.18-9.64-6.14-10.75-6.99-3.75-2.86-10.27-8.65-13.76-12.01-17.27-16.59-31.7-35.47-49-52-7.88-7.53-13.83-11.57-22-18-3.09-2.43-5.9-4.68-9-7-2.13-1.6-3.52-1.66-4-2-.15-.1-.11-1.58-2-3-2.44-1.83-4.47-3.28-7-5-3.3-2.23.22-2.91-6-2-.34.05-.71-.08-1,0,1.7-2.15-.57-4.44-2.23-5.73-.14-.11-.48.2-2.51-1.23-5.65-3.98-18.91-12.41-25.25-13.04-5.6-3.86-11.87-6.3-18-9-1.26-.55-2.38-.72-3-1-1.7-.76-4.29-1.22-6-2-7.85-3.6-15.61-8.08-23.76-11.71-1.25-.55-1.14-2.11-1.93-2.27-1.98-.41-4.28.9-5.31-1.01-1.67-3.1-14.79-10.57-19.23-14.04-3.61-2.82-9.14-7.3-12.44-10.3-2.07-1.88-4.5-6.01-7.32-7.65.82,12.41,6.24,26.56,11.85,37.64,4.25,8.39,9.2,13.63,15.14,20.36,3.24,3.67,6.49,8.28,10.48,11.97Z"/>
      <path class="cls-6" d="M579.05,251.14c-4.93-24.75-16.12-48.37-31.99-67.86-3.97,3.18-31.17,15.87-32.4,17.99-.5.85-.12,2.03.39,2.86,3.9,4.5,6.84,9.74,9.48,15.03,16.18,32.45,8.5,69.05-19,92-3.21,2.68-4.61,3.71-8,6-.77.52-1.48.68-2,1-4.63,2.87-5.93,3.68-11,6-1.31.6-2.05,1.26-4,2-1.11.42-1.91.65-3,1-11.82,3.82-18.65,4.82-31,3-1.22-.18-2.99.28-4,0-.68-.19-1.33-.77-2-1-3.75.52-6.82-1.77-10-3-2.61-1.01-5.12-1.38-7-2,4.99,5.15,11.39,11.33,18.48,13.01,1.65,1.35-1.15,1.08-1.96.98-26.03-3.03-48.92-23.27-58.57-46.95-1.59-1.11-11.91,6.2-13.96,7.49,5.83,7.95,10.77,15.74,13.72,25.26,3.91,12.6,1.94,26.45,18.21,30.31-1.87,11.68-8.94,21.75-14.12,32.21l-31.8,46.69,26.68-20.8c10.53-5.25,40.56-27.57,50.76-27.21,7.77.27,17.68,3.48,26.06,4.02,80.84,5.12,137.93-58.02,122-138Z"/>
      <path class="cls-6" d="M350.52,399.14c.53-.45,5.45-10.64,6.19-12.32,9.1-20.54,13.11-43.66,3.37-64.72-.97-2.11-7.65-13.6-9.15-13.91-5.72-1.17-15.9,27.01-16.44,32.4-1.63,16.13,4.96,43.57,13.82,57.27.48.75.59,2.66,2.22,1.28Z"/>
      <path class="cls-6" d="M185.42,201.27c-1.04-1.78-29.5-15.85-33.77-18.04-31.11,43.13-46.44,100.78-18.28,149.59,22.92,39.74,65.21,59.29,110.66,56.32,8.1-.53,18.58-3.9,26.06-4.02,6.32-.09,33.41,16.29,40.37,20.61,12.01,7.46,23.36,15.85,34.6,24.39-4.07-7.97-10.64-14.82-15.73-22.26-4.65-6.8-9.49-14.29-13.58-21.42-2.96-5.17-14.28-25.24-14.28-29.82,0-4.56,8.95-4.38,11.96-10.1,3.02-5.75,3.88-18.34,6.95-26.05,3.39-8.51,8.34-14.94,14.18-21.8l-13.41-7.44c-7.65,12.07-14.86,24.82-26.66,33.36-8.6,6.23-25.92,13.59-36.46,14.56-2.31.21-2.57-.28-.22-1.23,7.02-2.85,14.11-6.54,18.75-12.77-5.82,2.9-10.72,3.86-17,5-.32.06-.67-.05-1,0-1.28.2-2.56.83-5,1-.66.05-1.34-.03-2,0-.33.01-.67,0-1,0-1,.01-2,.03-3,0-8.47-.26-11.06-.91-19-3-10.7-2.82-12.95-4.27-22-10-18.06-11.44-30.62-26.56-36-48-.08-.31.07-.68,0-1-.07-.32.06-.68,0-1-1.61-8-2.62-13.55-2-22,.71-9.55,4.06-18.56,8-27,1.44-3.09,9.6-16.64,8.88-17.88Z"/>
      <path class="cls-4" d="M170.54,268.15c.06.32-.07.68,0,1,4.89.88,3.88-3.83,0-1Z"/>
      <path class="cls-2" d="M502.53,306.15c.28-2.08.1-2.28-1.98-1.98-.09.66.03,1.33,0,1.99.66-.03,1.33.06,1.99,0Z"/>
      <path class="cls-2" d="M503.53,307.15c.69-.63,6.54,1.36,5-5l-5.04,4.46c-1.31,3.64-3.23,4.22-2.96-.47-1.33.06-2.67-.05-3.99.01l2.99,2.98-6.99-.98c-.33,2.31,3,4.29,3.01,4.58.11,2.38-3.2,3.01,1.99,4.41,3.39-2.29,4.79-3.32,8-6-1.81-.16-2.62-3.43-2.01-4Z"/>
      <path class="cls-2" d="M434.54,327.14l.99-2.99-4.99,2c3.18,1.23,6.25,3.52,10,3-1.23-.43-3.15-3.04-6-2.01Z"/>
      <path class="cls-2" d="M477.8,323.53l-.26,3.62c1.09-.35,1.89-.58,3-1-.31-3.16-2.22-1.4-2.74-2.62Z"/>
      <path class="cls-2" d="M477.8,323.53l.24-3.38c-.43,1.94-.45,2.89-.24,3.38Z"/>
      <path class="cls-2" d="M442.54,330.15c1.01.28,2.78-.18,4,0-2.11-1.37-4.7-3.39-4,0Z"/>
      <circle class="cls-2" cx="492.56" cy="314.13" r="1.23"/>
      <path class="cls-2" d="M445.54,322.16l3.01,2.49-3,2.5c2.25-.99,7.26-2.64,3.8-4.82-.9-.57-2.65-.04-3.81-.17Z"/>
      <path class="cls-2" d="M467.54,324.14h3.99s0-1.99,0-1.99c-.55-.55-5.2,1.44-3.99,1.99Z"/>
      <circle class="cls-2" cx="481.56" cy="318.13" r="1.23"/>
      <path class="cls-2" d="M466.53,324.14v-.98c-4.16-.5-4.16,1.48,0,.98Z"/>
      <path class="cls-2" d="M475.53,323.16c-1.4-.72-2.67.63-1.99.98,1.4.72,2.67-.63,1.99-.98Z"/>
      <path class="cls-4" d="M258.53,809.16l-6.51,2.97c.86-4.57.44-2.75-3.48-1.98-.22-.24.79-3.75.99-4-4.86-.71-31.83,1.35-33.52-.98-11.31-44.91-21.87-90.04-33.01-134.99-2.43-9.79-2.98-20.14-7.5-29.3l-6.95-8.25,50.98,1.52c-4.41,6.09-4.71,14.14-3.89,21.38,1.44,12.7,8.55,26.22,7.95,38.01l15.95,68.6c2.13.3,1.62.09,2.23-1.27,1.58-3.49,3.29-11.3,4.48-15.52,7.36-26.17,14.77-54.48,21.22-79.97,2.49-9.85,4.34-20.22,6.08-30.24,2.02.07,10.97-.06,11.99-1.01.26-.24,1.31-6.14,2,1,2.42.18,7.35-.65,9.04.46.97.64,2.37,6.71,2.96,8.54,3.22,1.38,2.55-2.7,4.5-2.01,1.08.38-.35,2.58,1.99,2.02l1.5-2.51c-1.51-1.48-4.4.06-5.96.06-4.23-.02-2.65-9.17-1.04-11.54-2.83-1.4-6.43.24-7.06-2.46-.93-4-3.01.12-3.02,1.87,0,1.16,2.51-.15,2.07,1.57-10.16.52-3.07-3.05-2.99-3.5.35-1.92-1.41-2.07-1.99-1.49-1.57,1.55,1.19,5.72-5.01,2.99v3.02c-3.95-2.33-2.27.3-5,1.99.52-2.03-1.31-4.82-1.1-6.4.15-1.14,2.53.09,2.08-1.59-3.04.15-4.51-2.78-3.99,1.47l-2-2.49c-1.26.01-2.34-.93-3-1l1.99,6c-6.06-1.19,1.52-4.95-5.99-4-7.37,29.78-15.74,61.15-22,91,.35,3.55.69,2.56,3,4.99-1.29-.11-2.75.2-4,0-.59-.09-1.3.22-1.93-.05-2.91-12.39-5.65-24.78-8.31-37.25-.33-1.54-1.72-2.53-1.76-2.7-1.46-.79-1.59-3.48,0-4-2.32-11.69-8.76-32.05-1.41-41.91,3.46-4.65,9.05-5.15,7.42-12.09-6.99-.02-14.02.05-21,0,.55,3.13-2.61,2.97-2,0-.33,0-.67,0-1,0l-.99,4c-.03-4.84-2.61.51-5.52.98l1.51-2.97-4-2.01c-7.32-.03-14.68-.02-22,0-.26,3.82-3.98.1-3.5,6.01l-2.5-6.01c-7.32.03-14.68-.02-22,0-1.74,7.6,2.9,7.72,7.03,12.48,4.31,4.97,7.04,9.72,8.92,16.08l37.79,161.21c.31.62.65,1.39,1.25,1.75,2.03,1.2,41.45.83,47.01.49l2.01-2.01c-2.67-4.3,1.39-1.5.98-4.99ZM273.53,630.15v3.99s-1.99,0-1.99,0c-.55-.55,1.44-5.2,1.99-3.99ZM245.54,718.14c-.77-.76,1.11-5.23,2.49-5.97,1.77.7,1.21,3.63,1.5,3.98.16.19,4.36-.56.5,2.99l-.5-2.99c-1.11.23-2.13,3.84-3.99,1.99ZM226.53,678.16c.68.35-.59,1.7-1.99.98-.68-.35.59-1.7,1.99-.98ZM175.55,630.15c.35-.68,1.7.59.98,1.99-.35.68-1.7-.59-.98-1.99ZM250.54,815.14c-.68-.35.59-1.7,1.99-.98.68.35-.59,1.7-1.99.98Z"/>
      <path class="cls-4" d="M373.3,720.82c.57-.27-.63-2.58,3.23-.68-2.04-9.6-2.94.75-7.99,0-7.21,28.66-14.8,57.26-22.1,85.9l-34.89,1.11c0-2.19-.42-4.37-1.07-6.45-8.97-28.74-17.72-57.53-26.73-86.27l-4.2-7.29c-7.28,26.07-14.61,51.98-22.71,77.79-1.36,2.99-.65,7.53-1.3,10.2,2.12-.42,5.93,2.12,7-.51.02-.05.03-.1.03-.14l-.45-.3c-.7-.06-1.92.14-1.57-1.04l1.57,1.04c.28.02.47.09.45.3l.97.64c5.28-18.44,11.96-36.64,17.5-55l22.5,74h13s-1,2-1,2c10.4.21,26.8,1.27,36.55.05,1.1-.14,2.24.09,2.97-1.03,7.43-30.36,14.97-60.69,22.48-91.02l-6.56.82c-3.49-5.45-.34-2.88,2.33-4.14ZM257.54,793.14c-.68-.35.59-1.7,1.99-.98.68.35-.59,1.7-1.99.98ZM305.04,812.15v-1c.65.33.65.67,0,1Z"/>
      <path class="cls-2" d="M322.54,703.65c.54.9,3.95,2.1,4.01,4.02.02.49-2,.4-2.1,1.08-.16,1.17,1.56,3.99,1.09,4.4-.4.35-4.27-.98-5,2.01.09.31-.09.69,0,1l.98.5-.98.5c3.48,12.15,6.37,24.01,10.7,35.79.25.68,1,9.61,3.29,7.21.67-.7,4.1-16.09,4.77-18.74,5.2-20.49,9.09-41.38,13.24-62.26-2.2.94-1.65-1.87-2.51-2.01-1.91-.31-2.19,3.77-5.49,3l2.51-1.98-2.52-2.01-11.01,45.99c-1.44.24-1.31-1.69-1.73-2.74-2.34-5.94-4.38-13.07-6.26-19.25.07,1.68-3.12,3.3-3,3.5ZM327.56,712.89c.68,0,1.23.55,1.23,1.23s-.55,1.23-1.23,1.23-1.23-.55-1.23-1.23.55-1.23,1.23-1.23Z"/>
      <path class="cls-4" d="M344.54,680.14c3.3.77,3.57-3.31,5.49-3,.86.14.3,2.95,2.51,2.01,1.95-9.82,8.25-28.27,5.44-37.94-.93-3.2-4.57-5.14-5.43-8.05,5.66.11,11.99,1.02,17.55,1.08,2.15.03,4.22-1.09,4.44-1.09l-3.99-1c.03-4.42,3.52-2.14,6.47-1.96,1.06.07,2.44-.87,3.11-.77,1.02.15,1.05,2.17,1.6,2.52,2.85,1.8,6.86-3.49,5.81,2.22,2.46-.17,4.06-.04,6-2-1.15-.04-2.5-.61-4,0v-4.01c-2.69-.94-1.6,1.77-2.65,2.01-4.66,1.07-4.19-1.72-5.05-2-3.13-1.03-5.05,2.32-4.31-4.02-13.32-.06-26.68.04-40,0-1.77,6.24,6.88,9.88,9,14,3.14,3.17,1.71-4.7,3.99-1.99.88,1.04-1.77,5.5-.58,7.05,1.22,1.59,5.22.16,6.58,2.46-.6,4.6-2.87-2.56-4.99-.51-.68,4.27,3.56,3.3,4.51,5.97-1.17-.75-3.7-2.06-4.94-2.03-.61.02-.56,2.84-2.58,2.05-.3,8.31-3.93,16.6-4,25l2.52,2.01-2.51,1.98Z"/>
      <path class="cls-2" d="M388.55,670.15c.32-3.6-2.97-5.18-6.01-6-.68,2.41-2.34,5.48-3,8,1,.61,4.47.59,4.99,0,1.95-2.21-2.49-1.53-1.99-2.98,7.05-1.36,1.84,2.97,3,3.98,2.34,2.04,1.6-3.32,3.01-1.48l-2.03,9.49c-2.02,2.08-4.18-5.15-2.01-6.52l-4.98-.48c-3.99,15.29-7.15,30.7-11,46,5.05.75,5.95-9.6,7.99,0-3.85-1.9-2.66.41-3.23.68-2.67,1.26-5.82-1.31-2.33,4.14l6.56-.82c4.59-18.54,10.48-37.07,13-56-.42.62-1.09,1.17-1.01,1.99h-.98Z"/>
      <path class="cls-4" d="M406.54,624.15l-1.51,4.99c-3.18.54-.02-2.68-.49-2.98-2.71-1.79-3.04,3.45-4.95,1.92-.53-.43.1-3.32-5.05-1.92l4.38,3.66c3.39.26,2.74,1.16,2.61,4.33-3.14-.66-1.21-1.39-4.99-1.99.67,2.9-1.83,1.43-3.05,2.67-7.68,7.8-8.2,19.64-10.95,29.33,3.04.82,6.33,2.4,6.01,6h.98c-.07-.83.59-1.37,1.01-2,4.29-6.31,4.16-17.14,8.47-25.03,2.18-4,10.81-11.98,11.33-13.67,1.7-5.57.22-5.22-3.79-5.29Z"/>
      <path class="cls-4" d="M312.54,665.15s.06.03.12.06c.29.08.69-.24.88-.59.26-1.05-1.01-1.38-1.01-1.47.22.16-.2,1.84,0,2Z"/>
      <path class="cls-4" d="M304.54,661.15c2.7-1.15,2.93,1.77,3.71,1.98,1.23.33,3.93-.25,4.29.02.02-.39,1.37-1.76,1-1.99-.96-.6-3.81.49-5,.99,2.01-4.63-.65-1.39-4.01-3,.16.56-.16,1.44,0,2Z"/>
      <path class="cls-4" d="M312.54,665.15c-6.89-1.84-1.69,4.57-6,4,4.38,15.09,9.41,30.03,14,46,.73-2.98,4.61-1.66,5-2.01.47-.41-1.25-3.23-1.09-4.4.09-.68,2.11-.58,2.1-1.08-.06-1.92-3.46-3.13-4.01-4.02-.12-.2,3.07-1.81,3-3.5-2.93-9.64-5.43-17.13-7.71-25.79-.81-3.07.34-4.53-2.29-7.21-.11-.12-2.32-1.61-2.88-1.94-.04-.01-.08-.03-.12-.06ZM308.54,672.14c-.68-.35.59-1.7,1.99-.98.68.35-.59,1.7-1.99.98ZM310.32,669.13c0-.68.55-1.23,1.23-1.23s1.23.55,1.23,1.23-.55,1.23-1.23,1.23-1.23-.55-1.23-1.23ZM314.79,673.13c0,.68-.55,1.23-1.23,1.23s-1.23-.55-1.23-1.23.55-1.23,1.23-1.23,1.23.55,1.23,1.23Z"/>
      <path class="cls-2" d="M308.25,663.13c-.79-.21-1.02-3.13-3.71-1.98.73,2.5,1.21,5.28,2,8,4.31.57-.89-5.84,6-4-.2-.16.22-1.84,0-2-.36-.27-3.06.31-4.29-.02Z"/>
      <path class="cls-2" d="M278.53,626.16c.45,1.68-1.93.45-2.08,1.59-.22,1.58,1.61,4.37,1.1,6.4,2.72-1.69,1.05-4.32,4.98-1.99v-3.02c6.22,2.73,3.45-1.44,5.02-2.99.59-.58,2.35-.43,1.99,1.49-.08.44-7.17,4.02,2.99,3.5.43-1.73-2.08-.42-2.07-1.57,0-1.74,2.09-5.87,3.02-1.87.63,2.7,4.22,1.06,7.06,2.46-1.61,2.37-3.19,11.52,1.04,11.54,1.56,0,4.45-1.53,5.96-.06l-1.5,2.51c-2.35.56-.92-1.64-1.99-2.02-1.95-.69-1.28,3.4-4.5,2.01,1.57,4.87,3.65,10.41,5,15,3.36,1.6,6.02-1.64,4.01,3,1.19-.5,4.04-1.59,5-.99.37.23-.99,1.6-1,1.99,0,.09,1.27.43,1.01,1.47-.2.35-.59.68-.88.59.55.32,2.76,1.82,2.88,1.94-1.1-8.78-3.61-18.01-6.02-26.52-.52-1.82-1.94-2.32-1.98-2.48-.47-1.66-1.3-4.77-1.94-7.36-.02.71-.13,1.8-.07,2.36l-3.99-1.01c0-1.63,3.04-2.56,3.89-2.06-.25-1.05-.46-1.97-.58-2.61-.21-1.12,1.01-3.02.69-3.31-.2-.19-3.03.04-4,0l-3.5,4.01,1.49-2.99-7-1.01c-6.67-.01-13.76.94-20,1l2,2.49c-.52-4.25.95-1.32,3.99-1.47Z"/>
      <path class="cls-2" d="M312.66,665.21c-.06-.03-.11-.06-.12-.06.04.03.08.05.12.06Z"/>
      <path class="cls-2" d="M381.84,628.17c.85.28.39,3.06,5.05,2,1.05-.24-.04-2.96,2.64-2.01v4.01c1.51-.62,2.86-.05,4,0,.97.03,2.11-.14,3,0,3.78.61,1.85,1.33,4.99,1.99.13-3.17.78-4.07-2.61-4.33l-4.38-3.66c5.14-1.4,4.51,1.49,5.05,1.92,1.9,1.53,2.23-3.71,4.95-1.92.46.3-2.7,3.52.49,2.98l1.51-4.99c-3.66-.07-7.34.03-11,0-.14,1.5-2.86,1.5-3,0-4.99-.03-10.01.02-15,0-.74,6.33,1.17,2.98,4.31,4.02Z"/>
      <path class="cls-2" d="M351.11,649.1c1.23-.04,3.76,1.27,4.94,2.03-.95-2.67-5.19-1.7-4.51-5.97,2.11-2.05,4.39,5.11,4.99.51-1.35-2.3-5.36-.87-6.58-2.46-1.19-1.55,1.46-6.01.58-7.05-2.29-2.71-.85,5.17-3.99,1.99,1.99,3.85,2.15,8.75,2,13,2.02.79,1.97-2.03,2.58-2.05Z"/>
      <path class="cls-2" d="M303.54,814.15c1.8,3.31,8.34,1.92,12,2l1-1.99h-13Z"/>
      <path class="cls-2" d="M206.03,629.13c2.91-.47,5.49-5.82,5.52-.98l.99-4c-1.33,0-2.67,0-4,0l-.5.98-.5-.98c-1.33,0-2.67,0-4,0l4,2.01-1.51,2.97Z"/>
      <path class="cls-4" d="M298.04,628.15l3.5-4.01c-2.97-.14-6.02,0-9,0l7,1.01-1.49,2.99Z"/>
      <path class="cls-2" d="M181.54,624.15c-2,0-4,0-6,0l2.5,6.01c-.48-5.91,3.24-2.19,3.5-6.01Z"/>
      <path class="cls-2" d="M271.53,630.15l-1.99-6c-.8-.08-3.8-.14-4,.01-.23.17.14,1.42,0,1.99,7.51-.95-.07,2.81,5.99,4Z"/>
      <path class="cls-2" d="M246.54,722.14c-2.31-2.43-2.65-1.44-3-4.99-.26,1.25-1.85,2.93-1,5,1.25.19,2.71-.12,4,0Z"/>
      <path class="cls-2" d="M230.54,682.15c-.24-1.17.23-2.82,0-4-1.59.52-1.46,3.21,0,4Z"/>
      <path class="cls-2" d="M215.54,624.15c-.67,0-1.33,0-2,0-.61,2.97,2.55,3.13,2,0Z"/>
      <path class="cls-4" d="M395.54,624.15c-1,0-2,0-3,0,.14,1.5,2.86,1.5,3,0Z"/>
      <path class="cls-4" d="M208.54,624.15c-.33,0-.67,0-1,0l.5.98.5-.98Z"/>
      <path class="cls-5" d="M393.54,632.15c-1.94,1.96-3.54,1.83-6,2-4.07.29-9.24-.98-13-1-.23,0-2.29,1.11-4.44,1.09-5.56-.06-11.89-.97-17.55-1.08.86,2.92,4.51,4.86,5.43,8.05,2.81,9.67-3.49,28.12-5.44,37.94-4.15,20.88-8.04,41.77-13.24,62.26-.67,2.65-4.1,18.04-4.77,18.74-2.29,2.41-3.04-6.53-3.29-7.21-4.33-11.79-7.22-23.65-10.7-35.79-.09-.31.09-.69,0-1s.09-.69,0-1c-4.59-15.97-9.62-30.91-14-46-.79-2.72-1.27-5.5-2-8-.16-.56.16-1.44,0-2-1.35-4.59-3.43-10.13-5-15-.59-1.84-1.98-7.9-2.96-8.54-1.69-1.11-6.62-.28-9.04-.46-.85-.06-1.73-.03-2-1-1.02.95-9.97,1.08-11.99,1.01-1.74,10.02-3.59,20.4-6.08,30.24-6.44,25.49-13.86,53.79-21.22,79.97-1.19,4.22-2.9,12.03-4.48,15.52-.62,1.36-.1,1.57-2.23,1.27l-15.95-68.6c.6-11.79-6.51-25.3-7.95-38.01-.82-7.25-.51-15.29,3.89-21.38l-50.98-1.52,6.95,8.25c4.52,9.15,5.07,19.51,7.5,29.3,11.14,44.95,21.71,90.08,33.01,134.99,1.7,2.33,28.66.27,33.52.98.22-.26,2.27-.02,3.27-2.21.25-.53,2.61-8.32,2.73-8.79.65-2.67-.06-7.21,1.3-10.2,8.11-25.81,15.43-51.72,22.71-77.79l4.2,7.29c9.01,28.73,17.76,57.53,26.73,86.27.65,2.08,1.07,4.26,1.07,6.45l34.89-1.11c7.3-28.64,14.89-57.24,22.1-85.9,3.85-15.3,7.01-30.71,11-46,.15-.58-.15-1.42,0-2,.66-2.52,2.32-5.59,3-8,2.75-9.69,3.27-21.53,10.95-29.33,1.22-1.24,3.72.23,3.05-2.67-.89-.14-2.03.03-3,0Z"/>
      <path class="cls-2" d="M249.54,716.15l.5,2.99c3.87-3.55-.33-2.8-.5-2.99Z"/>
      <path class="cls-2" d="M249.54,716.15c-.29-.35.27-3.28-1.5-3.98-1.38.74-3.27,5.21-2.49,5.97,1.87,1.84,2.88-1.77,3.99-1.99Z"/>
      <path class="cls-2" d="M273.53,634.14v-3.99c-.55-1.21-2.54,3.44-1.99,3.99h1.99Z"/>
      <path class="cls-2" d="M287.54,635.15c-.69-7.14-1.74-1.24-2-1,.27.97,1.15.94,2,1Z"/>
      <path class="cls-2" d="M250.54,815.14c1.4.72,2.67-.63,1.99-.98-1.4-.72-2.67.63-1.99.98Z"/>
      <path class="cls-2" d="M176.53,632.14c.72-1.4-.63-2.67-.98-1.99-.72,1.4.63,2.67.98,1.99Z"/>
      <path class="cls-2" d="M226.53,678.16c-1.4-.72-2.67.63-1.99.98,1.4.72,2.67-.63,1.99-.98Z"/>
      <path class="cls-2" d="M262.53,794.64c-1.07,2.63-4.88.08-7,.51-.11.47-2.48,8.26-2.73,8.79-1.01,2.19-3.05,1.95-3.27,2.21-.21.24-1.22,3.76-.99,4,3.92-.76,4.34-2.59,3.48,1.98l6.51-2.97c.4,3.49-3.65.68-.98,4.99l-2.01,2.01c1.05-.06,2.44.54,3.11-.58,2.18-6.62,2.99-13.76,4.89-20.42l-.97-.64s-.01.09-.03.14Z"/>
      <path class="cls-2" d="M262.11,794.2l-1.57-1.04c-.35,1.18.87.99,1.57,1.04Z"/>
      <path class="cls-2" d="M262.11,794.2l.45.3c.02-.21-.17-.28-.45-.3Z"/>
      <path class="cls-2" d="M257.54,793.14c1.4.72,2.67-.63,1.99-.98-1.4-.72-2.67.63-1.99.98Z"/>
      <path class="cls-2" d="M305.04,811.15v1c.65-.33.65-.67,0-1Z"/>
      <circle class="cls-4" cx="327.56" cy="714.13" r="1.23"/>
      <path class="cls-4" d="M320.54,717.15l.98-.5-.98-.5c.09.31-.09.69,0,1Z"/>
      <path class="cls-2" d="M387.54,634.15c1.05-5.71-2.97-.42-5.81-2.22-.55-.34-.58-2.36-1.6-2.52-.67-.1-2.05.84-3.11.77-2.95-.18-6.45-2.47-6.47,1.96l3.99,1c3.76.02,8.93,1.29,13,1Z"/>
      <path class="cls-4" d="M379.54,674.15l4.98.48c-2.17,1.37,0,8.6,2.01,6.52l2.03-9.49c-1.41-1.84-.68,3.52-3.01,1.48-1.16-1.02,4.05-5.35-3-3.98-.51,1.46,3.94.78,1.99,2.98-.53.6-3.99.62-4.99,0-.15.58.15,1.42,0,2Z"/>
      <circle class="cls-2" cx="313.56" cy="673.13" r="1.23"/>
      <circle class="cls-2" cx="311.56" cy="669.13" r="1.23"/>
      <path class="cls-2" d="M308.54,672.14c1.4.72,2.67-.63,1.99-.98-1.4-.72-2.67.63-1.99.98Z"/>
      <path class="cls-4" d="M301.54,632.14l3.99,1.01c-.06-.55.05-1.65.07-2.36,0-.32,0-.57-.07-.64-.03-.03-.07-.05-.11-.07-.84-.5-3.89.43-3.89,2.06Z"/>
      <path class="cls-4" d="M162.53,721.15c-1.05-.98,8.17-10.07,0-10.5,5.87-.14,2-6.92,1.93-11.02-.04-2.26,1.09-2.34,1.08-2.48-.02-.33.01-.67,0-1-1.06.75-3.68-3.26-3.74-3.51-.41-1.73.88-5.8.6-6.31-.22-.39-2.95-.78-3.45-3.13-.23-1.07,1.25-1.92,1.3-3.32.21-5.73-7.33-7.58-3.72-13.72-29.5-62.8-120.93-60.63-147.49,3.01-16.05,38.46-11.96,103.6,22.02,131.96,26.57,22.17,75.31,24.38,101.47,1.03.12-.11.24-.21.35-.3,1.1-1.18,1.4-4.15,1.83-4.54.7-.62,2.19.06,2.82-.16.66-1.17.9-2.87,2-3.99l-6-1,.99,2.98-4-1.99c-26.18,22.75-71.08,21.58-96.52-1.98-30.25-28.01-31.22-98.39-9.31-131.36,26.69-40.17,91.81-39.66,118.25.42,2.28,3.46,4.51,11.23,6.69,14.34,1.08,1.55,2.81,1.46,2.9,1.6.39.57-1.61,1.53-1.69,2.46-.08.98,1.77,3.08,2.19,4.52,1.12,3.9-.2,7.65,4.5,7,.14-.02.53-1.49,1.47-1.02l.52.52c-.36.7-.97.45-1,.5-.33.51-.89,1.48-1,2,6.02-.75-.57,2.73,4.01,3.5l-4.01,1.5c.04-1.32-.09-2.68,0-4-3.17-.48-1.88,1.28-1.71,3.19,1.4,16.01,3.23,28.47.71,44.81,2.92-.56,7.28,1.32,4.99,4.31-.78,1.02-2.31.19-1.98,1.68h3.99c1.52-7.01,3.63-12.94,4-20.99-4.71.09.95-6.47-5-5ZM161.53,702.14c-2.52.25-3.38-1.6-2.98-3.99.66.49,2.76,1.01,2.85,1.13.43.57.03,1.97.13,2.86Z"/>
      <path class="cls-2" d="M158.54,758.15c-.13-.13-1.37.08-2,0-.07.65.11,1.4,0,2,.67,0,1.33.01,1.99,0-.05-.62.14-1.86,0-1.99Z"/>
      <path class="cls-2" d="M161.53,745.46c2.29-2.99-2.07-4.87-4.99-4.31-.52,3.38-2.32,7.59-3,12,5.26.3.52,3.08-1,5-4.09,5.17-7.39,17.45-12,24l5.01,1.01c.79,3.58-3.92,1.5-6.01,2,.18,1.75,3.6,4.17,4,4.99,2.23.07,2.68-1.34,3.82-2.68,5.98-7.07,8.04-13.99,11.18-22.32-.89.68-2.02.67-3,1-.15.51.14,1.37,0,2-2.09.28-2.27.09-1.99-1.99.62-.15,1.51.16,2,0,.64-2.15.63-4.03,1-6-1.44,0-2.59.36-2.01-1.49.33-1.05,1.31-.3,2.01-.51,1.07-.32.37-1.68,2,0,.82.85,1.2,2.11,2,3,.67-2.01,1.41-4.86,2-7l-3.99-1.01v-.97c2.26-.22,2.24-2.97,4.99-2.02.2-.85-.19-2.12,0-3h-3.99c-.33-1.5,1.2-.68,1.98-1.69Z"/>
      <path class="cls-2" d="M160.26,679.87c-.05,1.4-1.53,2.26-1.3,3.32.5,2.35,3.23,2.74,3.45,3.13.28.51-1.02,4.58-.6,6.31.06.25,2.68,4.26,3.74,3.51-.37-9.99-4.88-21.22-9-30-3.61,6.14,3.93,7.99,3.72,13.72Z"/>
      <path class="cls-2" d="M164.45,699.63c.08,4.11,3.94,10.89-1.93,11.02,8.17.42-1.04,9.52,0,10.5,5.96-1.47.3,5.1,5,5,.43-9.45-.62-19.64-2-29,0,.13-1.13.22-1.08,2.48Z"/>
      <path class="cls-2" d="M137.54,785.15c-1.73,2.19-5.06,6.31-7,8l4,1.99-.99-2.98,6,1c-1.1,1.12-1.34,2.82-2,3.99,2.02-.71,6.19-3.89,6-6-5.44,1.22-3.63-2.47-6-6Z"/>
      <path class="cls-2" d="M134.72,797.31c-.43.38-.73,3.35-1.83,4.54,2.34-1.98,2.57-1.04,4.65-4.7-.63.22-2.12-.46-2.82.16Z"/>
      <path class="cls-2" d="M132.89,801.85c-.11.1-.23.19-.35.3.13-.08.24-.19.35-.3Z"/>
      <path class="cls-4" d="M139.54,785.16c2.08-.5,6.8,1.58,6.01-2l-5.01-1.01c-.34.48-2.02,1.76-3,3,2.37,3.53.56,7.22,6,6-.03-.36.1-.8,0-1-.4-.82-3.82-3.24-4-4.99Z"/>
      <path class="cls-4" d="M153.54,766.15c-.28,2.09-.09,2.27,1.99,1.99.14-.63-.15-1.49,0-2-.48.16-1.37-.14-2,0Z"/>
      <path class="cls-4" d="M158.53,760.14c-.66.02-1.33,0-1.99,0-.37,1.97-.36,3.85-1,6,.98-.33,2.11-.32,3-1,.37-.97,1.31-1.95,2-4-.8-.89-1.18-2.15-2-3,.13.13-.06,1.37,0,1.99Z"/>
      <path class="cls-4" d="M156.54,758.15c-.7.21-1.67-.54-2.01.51-.59,1.85.57,1.49,2.01,1.49.11-.6-.07-1.35,0-2Z"/>
      <path class="cls-4" d="M158.54,758.15c-1.63-1.68-.93-.32-2,0,.63.08,1.87-.13,2,0Z"/>
      <path class="cls-4" d="M158.55,752.17v.97s3.99,1.01,3.99,1.01c.38-1.38.67-2.61,1-4-2.75-.95-2.73,1.8-4.99,2.02Z"/>
      <path class="cls-5" d="M137.54,785.15c.98-1.24,2.66-2.52,3-3,4.61-6.55,7.91-18.83,12-24,.56-1.63.74-3.3,1-5,.68-4.41,2.48-8.62,3-12,2.52-16.34.69-28.79-.71-44.81-.17-1.92-1.46-3.67,1.71-3.19.02-.34-.06-.71,0-1,.11-.52.67-1.49,1-2h-1c-4.7.65-3.38-3.1-4.5-7-.41-1.44-2.27-3.53-2.19-4.52.08-.94,2.08-1.89,1.69-2.46-.09-.14-1.82-.05-2.9-1.6-2.17-3.11-4.4-10.88-6.69-14.34-26.44-40.08-91.56-40.59-118.25-.42-21.91,32.97-20.93,103.35,9.31,131.36,25.44,23.56,70.35,24.73,96.52,1.98,1.94-1.69,5.27-5.81,7-8ZM116.25,756.36c-1.8,6.52-4.18,9.97-7.36,15.12-6.41,10.39-14.44,17.52-27.72,16.56-34.56-2.5-36.45-65.21-33.5-90.26,2.27-19.33,8.38-41.42,30.63-44.37,48.11-6.39,46.16,73.25,37.95,102.95Z"/>
      <path class="cls-2" d="M157.54,693.15c-.09,1.32.05,2.68,0,4l4.01-1.5c-4.58-.77,2-4.25-4.01-3.5-.06.29.02.66,0,1Z"/>
      <path class="cls-2" d="M161.4,699.28c-.09-.12-2.19-.65-2.85-1.13-.39,2.4.46,4.24,2.98,3.99-.1-.89.29-2.29-.13-2.86Z"/>
      <path class="cls-2" d="M159.53,689.65l-.52-.52c-.95-.47-1.33,1-1.47,1.02h1s.63.2,1-.5Z"/>
      <path class="cls-4" d="M153.54,753.15c-.26,1.7-.44,3.37-1,5,1.52-1.92,6.26-4.7,1-5Z"/>
      <path class="cls-4" d="M78.29,653.41c-22.25,2.95-28.36,25.04-30.63,44.37-2.94,25.04-1.05,87.76,33.5,90.26,13.28.96,21.31-6.16,27.72-16.56,3.17-5.15,5.56-8.6,7.36-15.12,8.21-29.7,10.16-109.34-37.95-102.95ZM110.52,734.64c-1.24,16.75-11.38,55.28-35.51,42.54-23.41-12.36-22.01-82.75-11.01-103.07,3.55-6.55,9.65-11.31,17.35-11.73,30.6-1.7,30.69,51.77,29.18,72.26Z"/>
      <path class="cls-4" d="M685.55,713.64c-15.14-12.45-34.91-13.24-50.93-23.07-8.06-4.95-16.78-13.7-8.06-22.9,9.42-9.95,32.23-2.31,41.98,4.48,7.77-1.05,8.61-1.78,8,7,4.55,3.99,5.3,8.66,13,7,.02-7.66-.04-15.35,0-23l-4.01-.5,4.01-.5c.04-10.31.38-20.72-.48-31.02-51.18-23.37-127.19-8.71-119.41,61.41,2.24,20.18,14.71,32.24,31.89,40.61.51-.69,1.3-.71,2-1-.39-3.29,2.55-2.96,1.99,0-.6.15-1.57-.17-1.99,0,.3,2.47,4.31,1.17,3-2l2.5,2.01c.97-4.54,3.22.4,6.5,0l-3,4.99c7.78,3.45,26.9,10.93,32.05,16.45,7.35,7.89,4.64,22.86-6.64,24.45-16.28,2.31-33.68-3.38-46.32-13.49-3.07-2.46-13.15-14.47-14.07-14.92-1.58-.77-6.76-.96-8.07-.05-2.63,1.82,1.36,51.38.23,57.4,37.96,15.38,100.92,20.47,125.25-19.92,13.58-22.54,11.61-56.15-9.41-73.43ZM660.32,803.43c-8.86,3.58-25.97,6.8-35.36,5.8-2.42-.26-.61-2.28-2.41-2.08.11,1.49.21,2.15-1.39,2-5.45-.51-39.61-6.11-41.46-9.17l-1.16-34.83c2.18,1.25,4.62,5.28,6.32,6.66,15.72,12.83,46.89,24.77,64.89,11.29,10.46-7.83,11.82-24.79,4.11-34.84-9.92-12.93-48.94-19.77-64.23-34.72-15.34-14.99-13.3-46.94-.13-62.92,20.65-25.04,62.2-22.11,89.88-12.34l1.13,31.87c-4.49-.03-2.22-1.58-3.93-3.54-2.21-2.55-15.72-9.7-19.24-10.79-14.7-4.55-37.05-4.55-42.77,12.87-1.75,5.33-1.98,13.03.25,18.18.4.93,9.33,8.81,10.77,9.71,19.99,12.45,55.82,15.1,64.85,40.16,10.35,28.72-2.42,55.49-30.13,66.69Z"/>
      <path class="cls-2" d="M605.53,732.15c.56-2.95-2.39-3.28-1.99,0,.42-.17,1.39.15,1.99,0Z"/>
      <path class="cls-2" d="M609.04,732.16l-2.5-2.01c1.3,3.17-2.71,4.47-3,2-.7.29-1.49.31-2,1,4.08,1.99,8.07,2.7,11,4l3-4.99c-3.28.4-5.53-4.53-6.5,0Z"/>
      <path class="cls-2" d="M668.54,672.15c1.9,1.32,5.88,5.14,8,7,.61-8.78-.23-8.05-8-7Z"/>
      <path class="cls-2" d="M689.54,663.15c0-.33,0-.67,0-1l-4.01.5,4.01.5Z"/>
      <path class="cls-5" d="M625.6,696.58c-1.44-.9-10.37-8.77-10.77-9.71-2.23-5.15-2-12.85-.25-18.18,5.72-17.42,28.08-17.43,42.77-12.87,3.52,1.09,17.02,8.24,19.24,10.79,1.71,1.97-.56,3.52,3.93,3.54l-1.13-31.87c-27.68-9.77-69.23-12.71-89.88,12.34-13.18,15.98-15.21,47.93.13,62.92,15.29,14.95,54.31,21.79,64.23,34.72,7.71,10.05,6.35,27.01-4.11,34.84-18,13.48-49.17,1.54-64.89-11.29-1.7-1.39-4.15-5.41-6.32-6.66l1.16,34.83c1.85,3.06,36.01,8.65,41.46,9.17,1.6.15,1.49-.5,1.39-2,1.8-.2,0,1.82,2.41,2.08,9.39.99,26.5-2.22,35.36-5.8,27.7-11.21,40.48-37.97,30.13-66.69-9.03-25.05-44.86-27.7-64.85-40.16Z"/>
      <path class="cls-4" d="M546.01,761.12c-20,15.28-30.07,14.03-54.47,14.03-1.09,4.26-1.86,6.04-5,2v1.99c-5.85-1.14-.23-1.8,0-1.99.11-.1-.03-1.43,0-2,.06-1.33-.04-2.67,0-4l-1.01,4.01-2.98-1.02c-.79-.52,3.98-1.93,1.99-3.98-.68-.7-5.98,3.11-7.99,2,.05,4.32-.03,8.68,0,13h35.5c4.49,0,13.67-2.13,18.29-3.71,5.3-1.83,9.78-5.6,15.21-6.28l-.99,30-113,.99c1.91-2.29,5.06-5.5,6.38-8.1,4.03-7.96,2.51-12.54,2.56-20.35.17-26.07.25-51.5.05-77.54-2.97.61-3.13-2.55,0-2-.11-12.79,2.35-50.3-3.15-59.35-1.75-2.87-4.41-3.16-4.85-3.67-2.79-3.25,2.76-.99,2.99-.98.18-5.75-1.96-7.97,5.01-7v-3c-1.35.16-2.67.74-4.01,1-1.09.22-2.92,1.88-5,.99-.17-1.14,1-.92,1-.99-.02-1.16-16.4-1.62-17-1-.11.11-.05,1.81-.05,2.51.05,6.05,3.69,4.86,6.71,7.83,12.16,11.95,7.83,30.73,8.3,46.2.11,3.66.96,7.32,1.04,11.46,6.89.43-.63,1.84,1.01,6,2.85-2.54,4.24,1.78,4,1.99-.28.24-4.37.33-5.01,3.01.33,23.58,1.31,50.22.04,73.54-.41,7.55-1.01,18.15-6.05,23.95-4.6,5.3-11.26,4.72-9,14.5h135l6-58.99c-6.92-1.51-7.45,1.85-11.53,4.96ZM434.54,629.16c.07.07.37,2.11-.49,1.98-5.21-1.92-1.62-4.14.49-1.98ZM433.03,706.17c.55.64,2.01,1.3,1.02,1.96-.48-.59-2.01-1.26-1.02-1.96Z"/>
      <path class="cls-4" d="M477.54,693.15c1.94.35,2.31-1.51,3-2h-4c0,.88,1,1.83,1,2Z"/>
      <path class="cls-4" d="M444.92,631.93c-1.5.34-2.81-2.39-2.38,1.22,13.18-.08,27.2,2.95,39.99-1,.58,3.96-3.47,6.91-4.53,9.96-2.51,7.3-1.38,20.01-1.46,28.04,1.94.3,3.32.28,3.01-1.99l1,.51c-.41,2.2-1.52,4.53-4.02,4.48-.05,5.32-.02,10.68,0,16,2.53.13,4.65-1.01,4,2,.35-.25,4.81-1.22,3-3-.3-.3-7.93-1.13-2-4.5-9.06-6.84,2.48-2.98,3-3.5,1.41-3.25-3.4-10.7,2-11,.21-12.9-2.67-22.64,6.49-33.01,3.78-4.28,9.05-5.33,7.52-11.99-13.65.18-27.36-.22-41,0,.54,2-1.36,1.6-1.95,2.8-.34.7.34,2.35-.23,3.06-.37.46-3.38-.49-2.83,2.14l-2.98-6.99c-1.22.03-2.94-1.04-4-1,.29,2.14-.23,7.24-2.62,7.78ZM479.04,667.15v-1c.65.33.65.67,0,1ZM451.04,627.15c.65.33.65.67,0,1v-1ZM451.53,629.15c.21.23-.11,2.18,0,2.99h-4s2.51-2.99,2.51-2.99c.54.1,1.33-.16,1.48,0Z"/>
      <path class="cls-2" d="M480.54,691.15c.65-3.01-1.47-1.87-4-2,0,.67,0,1.33,0,2h4Z"/>
      <path class="cls-2" d="M484.53,680.15c-.52.52-12.06-3.34-3,3.5-5.92,3.37,1.7,4.2,2,4.5,1.8,1.77-2.65,2.75-3,3-.69.49-1.06,2.35-3,2,.04,3.79-.02,7.6-.06,11.39.3-.44,1.14-.85,2.06-.38.68.35-.59,1.7-1.99.98-.04-.02-.05-.05-.07-.08-.05,4.06-.07,8.1.07,12.09,3.25-.89,1.51,2.47,2,3,1.98,2.13,1.57-2.83,3.48-1.99,1.29.57,1.78,2.12,1.52,3.49l-6,.52c-.41,1.71,1.47.63,1.82,1.09,1.01,1.31-2.26,6.08-2.83,7.9-.78,2.48-1.05,3.24-1,6,.95-.41,3.77-.52,4.01-1.51.63-2.61-2.3-.52-2-2.48l5.99-1v4.99c-2.68-.99-3.35-2.12-3.01,1.5,4.22.46,3,1.58,3,5.5-3.53.46-1.05-3.05-5.49-3-1.6.02,4.62,4.11-1.51,3.01-.26,9.03-1.1,18.53-1,28,2.01,1.12,7.31-2.7,7.99-2,2,2.05-2.78,3.47-1.99,3.98l2.98,1.02,1.01-4.01c.11-34.05-.55-67.99,0-102-5.41.3-.59,7.75-2,11ZM480.04,729.15v-1c.65.33.65.67,0,1ZM484.04,716.15v-1c.65.33.65.67,0,1ZM484.53,711.14c-.16.2-3.88.86-4,1.02-.25.33,3.03,4.91-.99,3.98-.71-1.89.43-7.16,2.13-7.83,1.92-.77,3.56,1.96,2.86,2.83ZM484.53,723.15v4.99c-5.46.42-.32-5.7,0-4.99ZM482.54,731.14c-.68-.35.59-1.7,1.99-.98.68.35-.59,1.7-1.99.98ZM481.53,695.15c-.82,1.05,2.52,4.87,2.71,6.62.08.73-.21,4.6-1.69,4.37,1.09-2.34-2.03-3.37-2.02-3.58.27-5.76-.26-2-.92-4.06-1.06-3.3,1.48-6.14,4.92-6.35,1.2,4.6-2.57,2.45-3,3Z"/>
      <path class="cls-2" d="M435.54,634.15c2.56.1,4.69-.99,7-1-.43-3.61.88-.88,2.38-1.22,2.39-.54,2.91-5.64,2.62-7.78-2.26.08-4.85-.26-7,0v3c-6.96-.98-4.82,1.24-5,7Z"/>
      <path class="cls-2" d="M457.35,630c.57-.7-.11-2.36.23-3.06.59-1.19,2.48-.79,1.95-2.8-3,.05-6.34.96-8,1l2.98,6.99c-.54-2.63,2.46-1.68,2.83-2.14ZM456.54,626.16l-1.99,1.99c-.29-2.09-.1-2.28,1.99-1.99Z"/>
      <path class="cls-2" d="M436.54,700.13c.24-.21-1.15-4.53-4-1.99-1.63-4.16,5.88-5.57-1.01-6,.07,3.66-.05,7.34,0,11,.63-2.68,4.73-2.77,5.01-3.01Z"/>
      <path class="cls-2" d="M486.53,779.14v-1.99c-.22.19-5.85.85,0,1.99Z"/>
      <path class="cls-2" d="M486.54,777.15c3.14,4.04,3.91,2.26,5-2h-5c-.03.57.11,1.9,0,2Z"/>
      <path class="cls-2" d="M431.54,626.14c2.08.89,3.91-.77,5-.99h-4c0,.07-1.17-.15-1,.99Z"/>
      <path class="cls-5" d="M476.54,737.15c-.05-2.76.22-3.52,1-6-.83-3.36.15-6.69,0-10-.02-.33.01-.67,0-1-.03-1,.03-2,0-3-.14-3.98-.12-8.03-.07-12.09-.14-.13-.13-.32,0-.52.04-3.8.1-7.61.06-11.39,0-.17-1-1.12-1-2,0-.67,0-1.33,0-2-.02-5.32-.05-10.68,0-16,0-1,0-2,0-3,.08-8.02-1.05-20.74,1.46-28.04,1.05-3.06,5.1-6.01,4.53-9.96-12.79,3.95-26.81.92-39.99,1-2.31.01-4.44,1.1-7,1-.24,0-5.78-2.27-2.99.98.43.51,3.1.8,4.85,3.67,5.5,9.05,3.03,46.56,3.15,59.35,0,.67,0,1.33,0,2,.2,26.04.12,51.47-.05,77.54-.05,7.81,1.47,12.39-2.56,20.35-1.32,2.61-4.48,5.81-6.38,8.1l113-.99.99-30c-5.43.68-9.91,4.45-15.21,6.28-4.61,1.59-13.79,3.71-18.29,3.71h-35.5c-.03-4.32.05-8.68,0-13-.1-9.47.74-18.97,1-28,.06-2.17-.96-4.46-1-7Z"/>
      <path class="cls-2" d="M434.54,629.16c-2.11-2.15-5.7.07-.49,1.98.87.13.57-1.91.49-1.98Z"/>
      <path class="cls-2" d="M440.54,700.15c0-.67,0-1.33,0-2-3.13-.55-2.97,2.61,0,2Z"/>
      <path class="cls-2" d="M434.05,708.13c.99-.66-.47-1.32-1.02-1.96-.99.7.54,1.37,1.02,1.96Z"/>
      <path class="cls-2" d="M451.53,632.14c-.11-.81.21-2.76,0-2.99-.15-.16-.94.11-1.48,0l-2.51,2.98h4Z"/>
      <path class="cls-2" d="M480.55,668.67l-1-.51c.31,2.27-1.07,2.29-3.01,1.99,0,1,0,2,0,3,2.5.05,3.61-2.28,4.02-4.48Z"/>
      <path class="cls-2" d="M479.04,666.15v1c.65-.33.65-.67,0-1Z"/>
      <path class="cls-2" d="M451.04,627.15v1c.65-.33.65-.67,0-1Z"/>
      <path class="cls-4" d="M479.04,741.14c4.44-.05,1.96,3.46,5.49,3,0-3.92,1.22-5.04-3-5.5-.34-3.62.33-2.49,3-1.5v-4.99s-5.99,1-5.99,1c-.31,1.96,2.63-.13,2,2.48-.24.99-3.06,1.1-4.01,1.51.04,2.54,1.06,4.83,1,7,6.12,1.11-.1-2.99,1.51-3.01Z"/>
      <path class="cls-4" d="M477.54,720.15v1c.15,3.31-.83,6.64,0,10,.57-1.82,3.84-6.59,2.83-7.9-.36-.46-2.23.62-1.82-1.09l6-.52c.26-1.36-.23-2.92-1.52-3.49-1.91-.84-1.5,4.12-3.48,1.99-.5-.53,1.25-3.89-2-3,.03,1-.03,2,0,3Z"/>
      <path class="cls-4" d="M479.61,698.51c.66,2.06,1.18-1.7.92,4.06,0,.21,3.11,1.24,2.02,3.58,1.48.24,1.77-3.64,1.69-4.37-.19-1.75-3.53-5.57-2.71-6.62.43-.55,4.19,1.6,3-3-3.44.22-5.99,3.05-4.92,6.35Z"/>
      <path class="cls-4" d="M481.67,708.31c-1.69.68-2.84,5.95-2.13,7.83,4.02.92.74-3.65.99-3.98.12-.17,3.84-.82,4-1.02.7-.87-.94-3.6-2.86-2.83Z"/>
      <path class="cls-4" d="M484.53,728.14v-4.99c-.32-.71-5.46,5.41,0,4.99Z"/>
      <path class="cls-4" d="M477.47,705.06s.04.06.07.08c1.4.72,2.67-.63,1.99-.98-.92-.47-1.76-.06-2.06.38-.13.2-.14.39,0,.52Z"/>
      <path class="cls-4" d="M482.54,731.14c1.4.72,2.67-.63,1.99-.98-1.4-.72-2.67.63-1.99.98Z"/>
      <path class="cls-4" d="M484.04,715.15v1c.65-.33.65-.67,0-1Z"/>
      <path class="cls-4" d="M480.04,728.15v1c.65-.33.65-.67,0-1Z"/>
      <path class="cls-4" d="M456.54,626.16c-2.09-.29-2.28-.1-1.99,1.99l1.99-1.99Z"/>
      <path class="cls-2" d="M477.54,721.15v-1c.01.33-.02.67,0,1Z"/>
    </g>
  </g>
</svg>