<?xml version="1.0" encoding="UTF-8"?>
<svg id="Layer_2" data-name="Layer 2" xmlns="http://www.w3.org/2000/svg" viewBox="0 0 6930.72 1709.71">
  <defs>
    <style>
      .cls-1, .cls-2 {
        letter-spacing: -.1em;
      }

      .cls-3 {
        letter-spacing: -.09em;
      }

      .cls-4 {
        letter-spacing: -.1em;
      }

      .cls-5 {
        letter-spacing: -.09em;
      }

      .cls-6, .cls-7, .cls-2 {
        fill: #7f7f7f;
      }

      .cls-6, .cls-2 {
        font-family: NimbusSan-Bol, 'Nimbus Sans';
        font-size: 798.76px;
      }

      .cls-8 {
        letter-spacing: -.09em;
      }
    </style>
  </defs>
  <g id="Layer_1-2" data-name="Layer 1">
    <g>
      <path class="cls-7" d="M3712.31,111.02l-711.84,711.84h600.82c12.94,0,24.61,7.8,29.56,19.75,4.95,11.96,2.21,25.72-6.94,34.87l-766.46,766.46,65.76,65.76,766.46-766.46c35.75-35.75,46.44-89.51,27.1-136.22-19.35-46.71-64.93-77.16-115.48-77.16h-376.3l553.08-553.08-65.76-65.76Z"/>
      <path class="cls-7" d="M2923.22,886.85c-12.94,0-24.61-7.8-29.56-19.75-4.95-11.96-2.22-25.72,6.94-34.87L3667.06,65.76,3601.3,0l-766.46,766.46c-35.75,35.75-46.44,89.51-27.1,136.22,19.35,46.71,64.93,77.16,115.48,77.16h376.3l-553.08,553.08,65.76,65.76,711.84-711.84h-600.82Z"/>
    </g>
    <text class="cls-6" transform="translate(0 1087.89)"><tspan class="cls-1" x="0" y="0">S</tspan><tspan class="cls-5" x="426.53" y="0">P</tspan><tspan class="cls-4" x="838.68" y="0">O</tspan><tspan class="cls-8" x="1356.26" y="0">R</tspan><tspan class="cls-3" x="1804.35" y="0">T</tspan><tspan class="cls-4" x="2184.54" y="0">S</tspan></text>
    <text class="cls-2" transform="translate(3810 1087.89)"><tspan x="0" y="0">LEGENDS</tspan></text>
  </g>
</svg>