<?xml version="1.0" encoding="UTF-8"?>
<svg id="Layer_2" data-name="Layer 2" xmlns="http://www.w3.org/2000/svg" viewBox="0 0 1643.76 264.84">
  <defs>
    <style>
      .cls-1 {
        fill: #2dd4bf;
      }

      .cls-2 {
        fill: none;
      }
    </style>
  </defs>
  <g id="Layer_1-2" data-name="Layer 1">
    <g>
      <path class="cls-2" d="M1515.28,114.97h-15.04v55.7h13.69c9.22,0,14.77-2.58,18.57-8.81,2.98-5.01,4.47-11.25,4.47-19.11s-1.36-13.55-4.34-18.7c-3.52-6.23-9.08-9.08-17.35-9.08Z"/>
      <path class="cls-2" d="M237.72,143.16c0-19.11-8.67-30.36-23.58-30.36s-23.45,11.25-23.45,29.95,8.81,30.09,23.58,30.09,23.45-11.25,23.45-29.68Z"/>
      <path class="cls-2" d="M139.6,127.44c0-7.86-4.88-12.47-12.88-12.47h-15.99v24.94h15.99c8,0,12.88-4.74,12.88-12.47Z"/>
      <path class="cls-2" d="M608.23,154.27c2.34,5.65,7.86,9.34,13.98,9.34h284.08l-101.22,101.22h42.79l105.65-105.65c4.33-4.33,5.62-10.83,3.28-16.49-2.34-5.65-7.86-9.34-13.98-9.34h-284.08L792.09,0h-42.79l-137.79,137.79c-4.33,4.33-5.62,10.83-3.28,16.49Z"/>
      <path class="cls-2" d="M313.76,114.97h-19.92v20.87h19.92c7.45,0,11.52-3.79,11.52-10.44s-4.07-10.44-11.52-10.44Z"/>
      <path class="cls-1" d="M658.74,133.35h284.08c6.12,0,11.64,3.69,13.98,9.34,2.34,5.65,1.05,12.16-3.28,16.49l-105.65,105.65h62.19l74.56-74.56c16.9-16.9,21.96-42.32,12.81-64.41-9.15-22.08-30.7-36.48-54.6-36.48h-177.92L854.28,0h-62.19l-133.35,133.35Z"/>
      <path class="cls-1" d="M906.29,163.61h-284.08c-6.12,0-11.64-3.69-13.98-9.34-2.34-5.65-1.05-12.16,3.28-16.49L749.3,0h-62.19l-106.69,106.69c-16.9,16.9-21.96,42.32-12.81,64.41,9.15,22.08,30.7,36.48,54.6,36.48h177.92l-57.25,57.25h62.19l101.22-101.22Z"/>
      <path class="cls-1" d="M38.9,173.12c-12.33,0-18.16-4.61-18.57-14.91H0c.14,20.19,14.23,31.85,38.63,31.85s37.81-11.52,37.81-30.22c0-7.18-2.3-13.01-6.91-17.21-4.34-4.07-9.89-6.51-19.92-8.95l-18.3-4.2c-5.56-1.36-8.27-3.93-8.27-7.73,0-5.69,5.83-9.22,15.45-9.22,10.3,0,16.26,4.34,16.26,11.93v1.49h20.33c-.81-8.13-2.3-13.01-5.29-17.48-5.83-8.54-16.13-12.88-30.77-12.88-22.91,0-36.32,10.44-36.32,27.92,0,7.32,2.58,13.96,7.18,17.75,4.07,3.52,10.03,6.1,19.65,8.4l16.4,4.07c6.51,1.63,9.76,4.74,9.76,9.22,0,6.37-6.37,10.17-16.81,10.17Z"/>
      <path class="cls-1" d="M129.84,157.26c10.44,0,17.35-2.58,22.77-8.27,5.15-5.42,7.73-12.6,7.73-20.87,0-9.76-3.52-18.03-9.76-23.58-5.83-5.15-12.33-6.91-24.67-6.91h-35.51v90.4h20.33v-30.77h19.11ZM110.73,114.97h15.99c8,0,12.88,4.61,12.88,12.47s-4.88,12.47-12.88,12.47h-15.99v-24.94Z"/>
      <path class="cls-1" d="M259,143.57c0-29.14-17.62-47.98-44.86-47.98-11.93,0-22.5,3.93-30.77,11.52-8.95,8.13-13.96,20.87-13.96,35.65,0,28.33,18.03,47.3,44.86,47.3s44.73-18.97,44.73-46.49ZM190.69,142.76c0-18.7,8.81-29.95,23.45-29.95s23.58,11.25,23.58,30.36-8.95,29.68-23.45,29.68-23.58-11.25-23.58-30.09Z"/>
      <path class="cls-1" d="M345.61,122.02c0-8.13-3.12-14.91-8.67-18.97-5.42-3.93-11.93-5.42-23.58-5.42h-39.44v90.4h19.92v-36.19h13.55c10.44,0,15.32,4.88,16.13,15.99l.81,12.33c.27,4.61.95,5.96,3.39,7.86h19.92c-2.58-3.79-3.25-5.83-3.66-11.79l-.68-12.88c-.68-11.93-3.79-16.67-12.74-19.52,10.17-3.79,15.04-10.84,15.04-21.82ZM313.76,135.85h-19.92v-20.87h19.92c7.45,0,11.52,3.79,11.52,10.44s-4.07,10.44-11.52,10.44Z"/>
      <polygon class="cls-1" points="401.85 188.03 401.85 114.97 429.23 114.97 429.23 97.63 354.14 97.63 354.14 114.97 381.52 114.97 381.52 188.03 401.85 188.03"/>
      <path class="cls-1" d="M473.95,173.12c-12.33,0-18.16-4.61-18.57-14.91h-20.33c.14,20.19,14.23,31.85,38.63,31.85s37.81-11.52,37.81-30.22c0-7.18-2.3-13.01-6.91-17.21-4.34-4.07-9.89-6.51-19.92-8.95l-18.3-4.2c-5.56-1.36-8.27-3.93-8.27-7.73,0-5.69,5.83-9.22,15.45-9.22,10.3,0,16.26,4.34,16.26,11.93v1.49h20.33c-.81-8.13-2.3-13.01-5.29-17.48-5.83-8.54-16.13-12.88-30.77-12.88-22.91,0-36.32,10.44-36.32,27.92,0,7.32,2.58,13.96,7.18,17.75,4.07,3.52,10.03,6.1,19.65,8.4l16.4,4.07c6.51,1.63,9.76,4.74,9.76,9.22,0,6.37-6.37,10.17-16.81,10.17Z"/>
      <polygon class="cls-1" points="1051.62 97.63 1051.62 188.03 1116.13 188.03 1116.13 170.68 1071.95 170.68 1071.95 97.63 1051.62 97.63"/>
      <polygon class="cls-1" points="1194.2 114.97 1194.2 97.63 1126.84 97.63 1126.84 188.03 1195.01 188.03 1195.01 170.68 1147.17 170.68 1147.17 148.59 1188.24 148.59 1188.24 132.59 1147.17 132.59 1147.17 114.97 1194.2 114.97"/>
      <path class="cls-1" d="M1249.5,112.81c9.89,0,16.94,5.01,19.11,13.42l19.65-1.22c-4.2-18.16-19.11-29.41-38.9-29.41-26.56,0-43.91,18.84-43.91,47.84s15.72,46.62,41.34,46.62c13.15,0,20.87-3.79,27.11-13.55l2.85,11.52h12.2v-50.01h-39.44v16.67h22.09c-2.03,11.38-10.71,18.57-22.23,18.57-14.77,0-23.58-11.66-23.58-31.17,0-18.16,9.08-29.28,23.72-29.28Z"/>
      <polygon class="cls-1" points="1372.97 114.97 1372.97 97.63 1305.61 97.63 1305.61 188.03 1373.78 188.03 1373.78 170.68 1325.94 170.68 1325.94 148.59 1367.01 148.59 1367.01 132.59 1325.94 132.59 1325.94 114.97 1372.97 114.97"/>
      <path class="cls-1" d="M1441.14,188.03h20.33v-90.4h-18.57v47.71l.14,6.78c0,2.71,0,5.15.27,8.81-3.39-6.78-5.69-11.52-9.22-18.3l-24.94-45h-21.14v90.4h18.57v-37.14c0-5.69,0-10.98-.14-15.86,0-2.71,0-6.1-.27-10.84l9.35,17.62,25.62,46.22Z"/>
      <path class="cls-1" d="M1510.54,97.63h-30.63v90.4h31.31c16.81,0,26.84-3.52,34.7-11.93,7.45-8.13,11.79-20.47,11.79-33.75s-3.93-24.13-11.11-32.26c-8.13-9.22-17.75-12.47-36.05-12.47ZM1532.49,161.87c-3.79,6.23-9.35,8.81-18.57,8.81h-13.69v-55.7h15.04c8.27,0,13.82,2.85,17.35,9.08,2.98,5.15,4.34,11.11,4.34,18.7s-1.49,14.1-4.47,19.11Z"/>
      <path class="cls-1" d="M1606.22,173.12c-12.33,0-18.16-4.61-18.57-14.91h-20.33c.14,20.19,14.23,31.85,38.63,31.85s37.81-11.52,37.81-30.22c0-7.18-2.3-13.01-6.91-17.21-4.34-4.07-9.89-6.51-19.92-8.95l-18.3-4.2c-5.56-1.36-8.27-3.93-8.27-7.73,0-5.69,5.83-9.22,15.45-9.22,10.3,0,16.26,4.34,16.26,11.93v1.49h20.33c-.81-8.13-2.3-13.01-5.29-17.48-5.83-8.54-16.13-12.88-30.77-12.88-22.91,0-36.32,10.44-36.32,27.92,0,7.32,2.58,13.96,7.18,17.75,4.07,3.52,10.03,6.1,19.65,8.4l16.4,4.07c6.51,1.63,9.76,4.74,9.76,9.22,0,6.37-6.37,10.17-16.81,10.17Z"/>
    </g>
  </g>
</svg>